<svg width="500" height="500" viewBox="0 0 500 500" fill="none" xmlns="http://www.w3.org/2000/svg">
<path d="M170.647 370.745C221.513 370.745 267.138 348.256 298.418 312.853L322.828 332.848C320.443 341.294 323.055 350.695 330.263 356.611L462.804 465.361C467.045 468.847 472.15 470.512 477.22 470.512C483.809 470.512 490.335 467.682 494.831 462.194C502.803 452.492 501.402 438.139 491.672 430.176L359.123 321.435C351.924 315.538 342.168 314.8 334.35 318.787L309.758 298.609C329.544 270.76 341.294 236.812 341.294 200.116C341.294 106.02 264.753 29.4696 170.647 29.4696C76.5499 29.4696 0 106.02 0 200.116C0 294.223 76.5499 370.745 170.647 370.745ZM170.647 47.6628C254.705 47.6628 323.092 116.049 323.092 200.107C323.092 284.157 254.705 352.543 170.647 352.543C86.5885 352.543 18.2023 284.166 18.2023 200.107C18.2023 116.049 86.5885 47.6628 170.647 47.6628Z" fill="#008080"/>
<path d="M257.982 223.579C261.586 223.579 262.696 219.529 262.696 214.242C262.696 209.281 261.595 204.913 257.982 204.913C254.369 204.913 253.267 209.281 253.267 214.242C253.267 219.529 254.369 223.579 257.982 223.579Z" fill="#008080"/>
<path d="M174.852 220.112C180.904 220.112 184.344 214.915 184.344 200.126C184.344 187.739 181.76 180.139 174.852 180.139C167.944 180.139 165.359 187.739 165.359 200.126C165.35 214.897 168.809 220.112 174.852 220.112Z" fill="#008080"/>
<path d="M126.807 220.112C132.85 220.112 136.308 214.915 136.308 200.126C136.308 187.739 133.724 180.139 126.807 180.139C119.899 180.139 117.305 187.739 117.305 200.126C117.305 214.897 120.754 220.112 126.807 220.112Z" fill="#008080"/>
<path d="M170.647 326.277C240.216 326.277 296.807 269.677 296.807 200.126C296.807 130.574 240.207 73.9561 170.647 73.9561C101.087 73.9561 44.4865 130.565 44.4865 200.116C44.4865 269.668 101.087 326.277 170.647 326.277ZM271.169 214.242C271.169 223.152 267.474 230.014 257.982 230.014C248.48 230.014 244.803 223.161 244.803 214.242C244.803 205.331 248.48 198.469 257.982 198.469C267.474 198.469 271.169 205.331 271.169 214.242ZM252.721 168.062C254.45 168.062 255.779 169.473 255.779 170.884C255.779 171.703 255.479 172.604 254.924 173.687L226.674 229.859C226.119 230.933 225.172 232.171 223.616 232.171C221.886 232.171 220.558 230.769 220.558 229.359C220.558 228.539 220.867 227.62 221.422 226.546L249.672 170.374C250.209 169.309 251.147 168.062 252.721 168.062ZM218.264 170.21C227.757 170.21 231.443 177.063 231.443 185.991C231.443 194.911 227.757 201.764 218.264 201.764C208.772 201.764 205.077 194.911 205.077 185.991C205.077 177.063 208.772 170.21 218.264 170.21ZM174.852 170.21C187.566 170.21 195.812 179.885 195.812 199.379C195.812 213.996 191.425 230.023 174.852 230.023C158.297 230.023 153.892 213.996 153.892 199.379C153.892 179.885 162.137 170.21 174.852 170.21ZM126.807 170.21C139.521 170.21 147.767 179.885 147.767 199.379C147.767 213.996 143.38 230.023 126.807 230.023C110.252 230.023 105.847 213.996 105.847 199.379C105.847 179.885 114.083 170.21 126.807 170.21ZM70.1245 186.974C70.1245 183.926 71.699 183.088 75.7763 182.26L78.6705 181.605C87.3894 179.621 84.9503 170.201 91.6306 170.201C94.1334 170.201 96.1811 171.357 96.1811 175.816V222.742C96.1811 227.047 94.6066 230.005 90.2108 230.005C85.824 230.005 84.2495 227.038 84.2495 222.742V191.352H74.1199C71.5443 191.361 70.1245 190.369 70.1245 186.974Z" fill="#008080"/>
<path d="M218.264 195.32C221.868 195.32 222.97 191.279 222.97 186.001C222.97 181.05 221.868 176.663 218.264 176.663C214.651 176.663 213.541 181.04 213.541 186.001C213.559 191.279 214.651 195.32 218.264 195.32Z" fill="#008080"/>
</svg>
