<?xml version="1.0" encoding="utf-8"?>
<!-- Generator: Adobe Illustrator 19.0.0, SVG Export Plug-In . SVG Version: 6.00 Build 0)  -->
<svg version="1.1" xmlns="http://www.w3.org/2000/svg" xmlns:xlink="http://www.w3.org/1999/xlink" x="0px" y="0px"
	 viewBox="0 0 750 500" style="enable-background:new 0 0 750 500;" xml:space="preserve">
<style type="text/css">
	.st0{fill:#00ACC1;}
	.st1{fill:#BDBDBD;}
	.st2{opacity:0.15;fill:#212121;}
	.st3{fill:#424242;}
	.st4{fill:#E0E0E0;}
	.st5{opacity:0.64;fill:#212121;}
	.st6{fill:#FFFFFF;}
	.st7{opacity:0.8;fill:#26C6DA;}
	.st8{fill:url(#SVGID_1_);}
	.st9{fill:url(#SVGID_2_);}
	.st10{fill:url(#SVGID_3_);}
	.st11{fill:url(#SVGID_4_);}
	.st12{fill:url(#SVGID_5_);}
	.st13{fill:url(#SVGID_6_);}
	.st14{fill:url(#SVGID_7_);}
	.st15{fill:url(#SVGID_8_);}
	.st16{fill:url(#SVGID_9_);}
	.st17{fill:url(#SVGID_10_);}
	.st18{fill:url(#SVGID_11_);}
	.st19{fill:url(#SVGID_12_);}
	.st20{fill:url(#SVGID_13_);}
	.st21{fill:url(#SVGID_14_);}
	.st22{fill:url(#SVGID_15_);}
	.st23{fill:url(#SVGID_16_);}
	.st24{fill:url(#SVGID_17_);}
	.st25{fill:url(#SVGID_18_);}
	.st26{fill:url(#SVGID_19_);}
	.st27{fill:url(#SVGID_20_);}
	.st28{fill:url(#SVGID_21_);}
	.st29{fill:url(#SVGID_22_);}
	.st30{fill:url(#SVGID_23_);}
	.st31{fill:url(#SVGID_24_);}
	.st32{fill:url(#SVGID_25_);}
	.st33{fill:url(#SVGID_26_);}
	.st34{fill:url(#SVGID_27_);}
	.st35{fill:url(#SVGID_28_);}
	.st36{fill:url(#SVGID_29_);}
	.st37{fill:url(#SVGID_30_);}
	.st38{fill:url(#SVGID_31_);}
</style>
<g id="BACKGROUND_2">
	<polygon class="st0" points="456,185.8 452.7,182.5 449.5,185.6 446.4,182.5 443.1,185.8 446.2,188.9 443.1,192.1 446.4,195.4 
		449.5,192.2 452.7,195.4 456,192.1 452.8,188.9 	"/>
	<polygon class="st0" points="253.7,305 250.4,301.7 247.2,304.8 244.1,301.7 240.8,305 243.9,308.1 240.8,311.3 244.1,314.6 
		247.2,311.4 250.4,314.6 253.7,311.3 250.5,308.1 	"/>
	<polygon class="st0" points="313.9,163.8 310.6,160.5 307.4,163.7 304.3,160.5 301,163.8 304.1,167 301,170.2 304.3,173.5 
		307.4,170.3 310.6,173.5 313.9,170.2 310.8,167 	"/>
	<polygon class="st0" points="522,329.3 518.7,325.9 515.5,329.1 512.4,325.9 509.1,329.3 512.2,332.4 509.1,335.6 512.4,338.9 
		515.5,335.7 518.7,338.9 522,335.6 518.9,332.4 	"/>
	<g>
		<path class="st0" d="M253.7,200.2c-2.7,0-4.8-2.2-4.8-4.8c0-2.7,2.2-4.8,4.8-4.8c2.7,0,4.8,2.2,4.8,4.8
			C258.5,198.1,256.4,200.2,253.7,200.2z M253.7,192.6c-1.6,0-2.8,1.3-2.8,2.8s1.3,2.8,2.8,2.8s2.8-1.3,2.8-2.8
			S255.3,192.6,253.7,192.6z"/>
	</g>
	<g>
		<path class="st0" d="M394.1,156.3c-2.7,0-4.8-2.2-4.8-4.8s2.2-4.8,4.8-4.8c2.7,0,4.8,2.2,4.8,4.8S396.8,156.3,394.1,156.3z
			 M394.1,148.7c-1.6,0-2.8,1.3-2.8,2.8s1.3,2.8,2.8,2.8s2.8-1.3,2.8-2.8S395.7,148.7,394.1,148.7z"/>
	</g>
	<g>
		<path class="st0" d="M529.6,224c-2.7,0-4.8-2.2-4.8-4.8c0-2.7,2.2-4.8,4.8-4.8c2.7,0,4.8,2.2,4.8,4.8
			C534.5,221.9,532.3,224,529.6,224z M529.6,216.4c-1.6,0-2.8,1.3-2.8,2.8s1.3,2.8,2.8,2.8s2.8-1.3,2.8-2.8S531.2,216.4,529.6,216.4
			z"/>
	</g>
	<g>
		<path class="st0" d="M468,303.8c-2.7,0-4.8-2.2-4.8-4.8c0-2.7,2.2-4.8,4.8-4.8c2.7,0,4.8,2.2,4.8,4.8
			C472.8,301.7,470.6,303.8,468,303.8z M468,296.2c-1.6,0-2.8,1.3-2.8,2.8s1.3,2.8,2.8,2.8s2.8-1.3,2.8-2.8S469.5,296.2,468,296.2z"
			/>
	</g>
	<g>
		<path class="st0" d="M301,365c-2.7,0-4.8-2.2-4.8-4.8c0-2.7,2.2-4.8,4.8-4.8c2.7,0,4.8,2.2,4.8,4.8C305.8,362.8,303.6,365,301,365
			z M301,357.3c-1.6,0-2.8,1.3-2.8,2.8s1.3,2.8,2.8,2.8s2.8-1.3,2.8-2.8S302.5,357.3,301,357.3z"/>
	</g>
	<circle class="st0" cx="309.9" cy="198.3" r="9"/>
	<circle class="st0" cx="314.3" cy="301.8" r="4.5"/>
	<circle class="st0" cx="539" cy="287.2" r="4.5"/>
	<circle class="st0" cx="223.8" cy="229.3" r="4.5"/>
	<circle class="st0" cx="449.5" cy="229.3" r="4.5"/>
	<circle class="st0" cx="440.1" cy="355.3" r="6.8"/>
	<g>
		<g>
			<path class="st1" d="M269.6,299.4v-21.1h-41.3v-16.8l47.4-60.8h12.9v60.7H301v17h-12.4v21.1H269.6z M247.2,261.3h24.5v-32
				L247.2,261.3z"/>
		</g>
		<g>
			<path class="st1" d="M490.3,299.4v-21.1H449v-16.8l47.4-60.8h12.9v60.7h12.4v17h-12.4v21.1H490.3z M468,261.3h24.5v-32L468,261.3
				z"/>
		</g>
	</g>
	<path class="st2" d="M449.6,306l0.4-0.3c0.6-0.5,0.6-1.4,0.1-1.9l-7.6-8.3c7.8-9.8,12.7-22.1,13.3-35.6
		c1.5-34.1-24.9-62.9-58.9-64.4c-34.1-1.5-62.9,24.9-64.4,58.9c-1.5,34.1,24.9,62.9,58.9,64.4c13.5,0.6,26.2-3.2,36.7-10.1l7.6,8.3
		c0.5,0.6,1.4,0.6,1.9,0.1l0.4-0.3l56.2,61.4h21.4L449.6,306z"/>
	<path class="st3" d="M522.4,385.6L430.8,294L419,305.8l91.6,91.6c3.4,3.4,9.1,3.2,12.2-0.5h0C525.6,393.5,525.4,388.6,522.4,385.6z
		"/>
	<path class="st4" d="M410.5,300.1l11.1,11.1c0.6,0.6,1.5,0.6,2,0l12.5-12.5c0.6-0.6,0.6-1.5,0-2l-11.1-11.1L410.5,300.1z"/>
	<polygon class="st1" points="426.8,287.2 428.2,288.7 416.4,306 411.2,300.8 	"/>
	<polygon class="st5" points="424,310.8 435.8,299 436.6,299.8 427.4,314.1 	"/>
	<path class="st6" d="M375,184.9c-36,0-65.1,29.2-65.1,65.1s29.2,65.1,65.1,65.1s65.1-29.2,65.1-65.1S411,184.9,375,184.9z
		 M375,301.7c-28.5,0-51.7-23.1-51.7-51.7c0-28.5,23.1-51.7,51.7-51.7c28.5,0,51.7,23.1,51.7,51.7
		C426.7,278.5,403.5,301.7,375,301.7z"/>
	<circle class="st7" cx="375" cy="250" r="51.7"/>
	
		<ellipse transform="matrix(-0.7071 -0.7071 0.7071 -0.7071 432.6 617.6121)" class="st6" cx="344.2" cy="219.2" rx="4.9" ry="19.1"/>
</g>
<g id="BACKGROUND_1">
</g>
<g id="DESIGNED_BY_FREEPIK">
	<g>
		<g>
			<linearGradient id="SVGID_1_" gradientUnits="userSpaceOnUse" x1="-350.791" y1="480.5762" x2="-343.9111" y2="480.5762">
				<stop  offset="0" style="stop-color:#FAFAFA"/>
				<stop  offset="1" style="stop-color:#EEEEEE"/>
			</linearGradient>
			<path class="st8" d="M-344.1,475.9c-0.1-0.2-0.3-0.3-0.6-0.3c-0.3,0-0.5,0.1-0.6,0.3c-0.1,0.2-0.2,0.5-0.2,0.8v2.6
				c-0.3-0.4-0.7-0.6-1-0.8c-0.4-0.2-0.8-0.3-1.3-0.3c-0.9,0-1.6,0.3-2.1,0.9c-0.5,0.6-0.8,1.5-0.8,2.6c0,0.5,0.1,1,0.2,1.4
				c0.1,0.5,0.3,0.8,0.6,1.2c0.3,0.3,0.6,0.6,0.9,0.8c0.4,0.2,0.7,0.3,1.2,0.3c0.3,0,0.6,0,0.9-0.1c0.3-0.1,0.5-0.2,0.8-0.4
				c0.2-0.2,0.5-0.4,0.7-0.7v0.2c0,0.3,0.1,0.6,0.2,0.8c0.2,0.2,0.4,0.3,0.6,0.3c0.2,0,0.4-0.1,0.6-0.3c0.1-0.2,0.2-0.4,0.2-0.8
				v-7.8C-343.9,476.4-344,476.1-344.1,475.9z M-345.9,483.1c-0.1,0.3-0.4,0.6-0.6,0.7c-0.3,0.2-0.5,0.2-0.8,0.2
				c-0.3,0-0.6-0.1-0.9-0.3c-0.3-0.2-0.5-0.4-0.6-0.8c-0.1-0.3-0.2-0.7-0.2-1.2c0-0.5,0.1-0.8,0.2-1.2c0.1-0.3,0.3-0.6,0.6-0.8
				c0.3-0.2,0.5-0.3,0.9-0.3c0.3,0,0.6,0.1,0.9,0.3c0.3,0.2,0.5,0.4,0.6,0.8c0.2,0.3,0.2,0.7,0.2,1.2
				C-345.7,482.4-345.7,482.8-345.9,483.1z"/>
			<linearGradient id="SVGID_2_" gradientUnits="userSpaceOnUse" x1="-343.061" y1="481.876" x2="-336.3711" y2="481.876">
				<stop  offset="0" style="stop-color:#FAFAFA"/>
				<stop  offset="1" style="stop-color:#EEEEEE"/>
			</linearGradient>
			<path class="st9" d="M-337.1,483c-0.2,0-0.3,0-0.4,0.1c-0.2,0.2-0.4,0.4-0.5,0.5c-0.1,0.1-0.3,0.2-0.5,0.3
				c-0.2,0.1-0.3,0.2-0.5,0.2c-0.2,0.1-0.4,0.1-0.6,0.1c-0.3,0-0.6-0.1-0.9-0.2c-0.3-0.2-0.5-0.4-0.6-0.7c-0.2-0.3-0.2-0.7-0.2-1
				h3.4c0.5,0,0.8-0.1,1.1-0.2c0.3-0.1,0.4-0.4,0.4-0.9c0-0.5-0.1-0.9-0.4-1.4c-0.2-0.5-0.6-0.8-1.1-1.1c-0.5-0.3-1.1-0.4-1.8-0.4
				c-0.5,0-1,0.1-1.4,0.3c-0.4,0.2-0.8,0.4-1.1,0.7c-0.3,0.3-0.5,0.7-0.7,1.1c-0.2,0.4-0.2,0.9-0.2,1.4c0,1.1,0.3,2,0.9,2.6
				c0.6,0.6,1.5,1,2.6,1c0.5,0,0.9-0.1,1.3-0.2c0.4-0.1,0.7-0.3,0.9-0.5c0.3-0.2,0.4-0.4,0.6-0.6c0.1-0.2,0.2-0.4,0.2-0.6
				c0-0.2,0-0.3-0.2-0.4C-336.8,483.1-336.9,483-337.1,483z M-340.8,480c0.3-0.3,0.6-0.4,1.1-0.4c0.5,0,0.8,0.1,1.1,0.4
				c0.3,0.3,0.4,0.8,0.5,1.4h-3.2C-341.2,480.7-341,480.3-340.8,480z"/>
			<linearGradient id="SVGID_3_" gradientUnits="userSpaceOnUse" x1="-335.8408" y1="481.8813" x2="-329.8208" y2="481.8813">
				<stop  offset="0" style="stop-color:#FAFAFA"/>
				<stop  offset="1" style="stop-color:#EEEEEE"/>
			</linearGradient>
			<path class="st10" d="M-330.1,482.3c-0.2-0.3-0.4-0.5-0.8-0.6c-0.3-0.2-0.8-0.4-1.3-0.5c-0.5-0.1-0.8-0.2-1.1-0.3
				c-0.3-0.1-0.5-0.2-0.6-0.3c-0.1-0.1-0.2-0.3-0.2-0.5c0-0.2,0.1-0.4,0.3-0.5c0.2-0.1,0.5-0.2,0.8-0.2c0.3,0,0.5,0.1,0.7,0.2
				c0.2,0.1,0.3,0.2,0.5,0.4c0.2,0.2,0.3,0.4,0.4,0.5c0.1,0.1,0.3,0.2,0.5,0.2c0.3,0,0.4-0.1,0.6-0.2c0.1-0.1,0.2-0.3,0.2-0.5
				c0-0.2-0.1-0.4-0.2-0.6c-0.1-0.2-0.3-0.4-0.5-0.5c-0.2-0.2-0.5-0.3-0.9-0.4c-0.4-0.1-0.8-0.1-1.2-0.1c-0.6,0-1.1,0.1-1.5,0.3
				c-0.4,0.2-0.7,0.4-0.9,0.8c-0.2,0.3-0.3,0.7-0.3,1c0,0.4,0.1,0.7,0.3,1c0.2,0.3,0.5,0.5,0.9,0.7c0.4,0.2,0.9,0.3,1.5,0.5
				c0.5,0.1,0.9,0.3,1.1,0.4c0.2,0.1,0.4,0.4,0.4,0.7c0,0.2-0.1,0.4-0.3,0.5c-0.2,0.2-0.5,0.2-0.9,0.2c-0.4,0-0.8-0.1-1-0.2
				c-0.3-0.2-0.5-0.4-0.7-0.7c-0.1-0.2-0.2-0.3-0.3-0.4c-0.1-0.1-0.2-0.1-0.4-0.1c-0.2,0-0.4,0.1-0.5,0.2c-0.1,0.1-0.2,0.3-0.2,0.5
				c0,0.3,0.1,0.6,0.3,0.9c0.2,0.3,0.6,0.5,1,0.7c0.5,0.2,1,0.3,1.6,0.3c0.7,0,1.2-0.1,1.7-0.3c0.5-0.2,0.8-0.4,1-0.8
				c0.2-0.3,0.4-0.8,0.4-1.2C-329.8,482.8-329.9,482.5-330.1,482.3z"/>
			<linearGradient id="SVGID_4_" gradientUnits="userSpaceOnUse" x1="-328.9111" y1="480.6114" x2="-327.1509" y2="480.6114">
				<stop  offset="0" style="stop-color:#FAFAFA"/>
				<stop  offset="1" style="stop-color:#EEEEEE"/>
			</linearGradient>
			<path class="st11" d="M-327.4,478.6c-0.2-0.2-0.4-0.3-0.6-0.3c-0.3,0-0.5,0.1-0.6,0.3c-0.2,0.2-0.2,0.4-0.2,0.8v5
				c0,0.3,0.1,0.6,0.2,0.8c0.2,0.2,0.4,0.3,0.6,0.3c0.3,0,0.5-0.1,0.6-0.3c0.2-0.2,0.3-0.5,0.3-0.8v-5.1
				C-327.2,479-327.2,478.7-327.4,478.6z M-327.4,476c-0.2-0.1-0.4-0.2-0.6-0.2c-0.2,0-0.4,0.1-0.6,0.3c-0.2,0.2-0.3,0.4-0.3,0.6
				c0,0.3,0.1,0.5,0.3,0.6c0.2,0.1,0.4,0.2,0.6,0.2c0.2,0,0.4-0.1,0.6-0.2c0.2-0.2,0.3-0.4,0.3-0.6
				C-327.2,476.3-327.2,476.1-327.4,476z"/>
			<linearGradient id="SVGID_5_" gradientUnits="userSpaceOnUse" x1="-326.311" y1="483.1816" x2="-319.4512" y2="483.1816">
				<stop  offset="0" style="stop-color:#FAFAFA"/>
				<stop  offset="1" style="stop-color:#EEEEEE"/>
			</linearGradient>
			<path class="st12" d="M-319.6,478.6c-0.1-0.2-0.3-0.3-0.7-0.3c-0.2,0-0.4,0.1-0.6,0.3c-0.1,0.2-0.2,0.4-0.2,0.7v0.2
				c-0.3-0.4-0.6-0.7-1-0.9c-0.4-0.2-0.8-0.3-1.3-0.3c-0.4,0-0.8,0.1-1.1,0.2c-0.4,0.1-0.6,0.4-0.9,0.7c-0.3,0.3-0.5,0.7-0.6,1.1
				c-0.2,0.4-0.2,0.9-0.2,1.4c0,0.7,0.1,1.3,0.4,1.9c0.2,0.5,0.6,1,1,1.3c0.4,0.3,0.9,0.5,1.5,0.5c0.5,0,0.9-0.1,1.3-0.3
				c0.4-0.2,0.7-0.5,0.9-0.9c0,0.6,0,1,0,1.3c0,0.3-0.1,0.5-0.2,0.7c-0.1,0.2-0.3,0.4-0.5,0.5c-0.3,0.1-0.6,0.2-1.1,0.2
				c-0.2,0-0.4,0-0.6-0.1c-0.2,0-0.3-0.1-0.4-0.2c-0.1-0.1-0.2-0.2-0.3-0.3c-0.1-0.1-0.2-0.2-0.3-0.3c-0.2-0.2-0.4-0.3-0.7-0.3
				c-0.2,0-0.4,0.1-0.5,0.2c-0.1,0.1-0.2,0.3-0.2,0.5c0,0.3,0.1,0.5,0.4,0.8c0.3,0.3,0.6,0.5,1.1,0.7c0.5,0.2,1,0.3,1.6,0.3
				c0.7,0,1.2-0.1,1.6-0.2c0.4-0.1,0.8-0.3,1.1-0.6c0.3-0.3,0.5-0.6,0.6-1c0.1-0.4,0.2-0.9,0.2-1.5v-5.1
				C-319.5,479.2-319.5,478.9-319.6,478.6z M-321.4,483c-0.2,0.3-0.4,0.6-0.6,0.7c-0.3,0.2-0.5,0.2-0.8,0.2c-0.5,0-0.9-0.2-1.2-0.5
				c-0.3-0.4-0.5-0.9-0.5-1.6c0-0.7,0.1-1.3,0.5-1.6c0.3-0.4,0.7-0.6,1.2-0.6c0.5,0,0.9,0.2,1.2,0.6c0.3,0.4,0.5,1,0.5,1.7
				C-321.2,482.3-321.3,482.7-321.4,483z"/>
			<linearGradient id="SVGID_6_" gradientUnits="userSpaceOnUse" x1="-318.311" y1="481.8813" x2="-312.041" y2="481.8813">
				<stop  offset="0" style="stop-color:#FAFAFA"/>
				<stop  offset="1" style="stop-color:#EEEEEE"/>
			</linearGradient>
			<path class="st13" d="M-312.1,480.2c0-0.2-0.1-0.5-0.2-0.7c-0.2-0.4-0.5-0.6-0.8-0.9c-0.4-0.2-0.8-0.3-1.2-0.3
				c-0.5,0-0.9,0.1-1.3,0.3c-0.1,0-0.2,0.1-0.3,0.2c-0.3,0.2-0.5,0.4-0.7,0.7v-0.2c0-0.2,0-0.4-0.1-0.5c-0.1-0.1-0.2-0.3-0.3-0.3
				c-0.1-0.1-0.3-0.1-0.4-0.1c-0.3,0-0.4,0.1-0.6,0.3c-0.2,0.2-0.2,0.4-0.2,0.8v5.1c0,0.3,0.1,0.6,0.3,0.8c0.2,0.2,0.4,0.3,0.6,0.3
				c0.3,0,0.5-0.1,0.6-0.3c0.2-0.2,0.3-0.5,0.3-0.8v-2.2c0-0.7,0-1.2,0.1-1.5c0.1-0.3,0.3-0.6,0.6-0.8c0.3-0.2,0.5-0.3,0.9-0.3
				c0.5,0,0.8,0.2,1,0.5c0.2,0.3,0.2,0.8,0.2,1.3v2.9c0,0.3,0.1,0.6,0.3,0.8c0.2,0.2,0.4,0.3,0.6,0.3c0.3,0,0.5-0.1,0.6-0.3
				c0.2-0.2,0.3-0.5,0.3-0.8v-3.3C-312,480.7-312.1,480.4-312.1,480.2z"/>
			<linearGradient id="SVGID_7_" gradientUnits="userSpaceOnUse" x1="-311.2012" y1="481.876" x2="-304.521" y2="481.876">
				<stop  offset="0" style="stop-color:#FAFAFA"/>
				<stop  offset="1" style="stop-color:#EEEEEE"/>
			</linearGradient>
			<path class="st14" d="M-305.2,483c-0.2,0-0.3,0-0.4,0.1c-0.2,0.2-0.4,0.4-0.5,0.5c-0.1,0.1-0.3,0.2-0.5,0.3
				c-0.2,0.1-0.3,0.2-0.5,0.2c-0.2,0.1-0.4,0.1-0.5,0.1h0c0,0,0,0,0,0c-0.3,0-0.6-0.1-0.9-0.2c-0.3-0.2-0.5-0.4-0.6-0.7
				c0-0.1-0.1-0.1-0.1-0.2v0c-0.1-0.3-0.2-0.6-0.2-0.9h3.4c0.5,0,0.8-0.1,1.1-0.2c0.3-0.1,0.4-0.4,0.4-0.9c0-0.5-0.1-0.9-0.4-1.4
				c-0.2-0.5-0.6-0.8-1.1-1.1c-0.5-0.3-1.1-0.4-1.8-0.4c-0.5,0-1,0.1-1.4,0.3c-0.4,0.2-0.8,0.4-1.1,0.7c-0.3,0.3-0.5,0.7-0.7,1.1
				c-0.2,0.4-0.2,0.9-0.2,1.4c0,1.1,0.3,2,0.9,2.6c0.6,0.6,1.5,1,2.6,1c0.5,0,0.9-0.1,1.3-0.2c0,0,0,0,0,0c0.4-0.1,0.7-0.3,0.9-0.5
				c0.3-0.2,0.4-0.4,0.6-0.6c0.1-0.2,0.2-0.4,0.2-0.6c0-0.2-0.1-0.3-0.2-0.4C-304.9,483.1-305.1,483-305.2,483z M-308.9,480
				c0.3-0.3,0.6-0.4,1.1-0.4c0.5,0,0.8,0.1,1.1,0.4c0.3,0.3,0.5,0.8,0.5,1.4h-3.2C-309.4,480.7-309.2,480.3-308.9,480z"/>
			<linearGradient id="SVGID_8_" gradientUnits="userSpaceOnUse" x1="-304.0308" y1="480.5762" x2="-297.1411" y2="480.5762">
				<stop  offset="0" style="stop-color:#FAFAFA"/>
				<stop  offset="1" style="stop-color:#EEEEEE"/>
			</linearGradient>
			<path class="st15" d="M-297.4,475.9c-0.1-0.2-0.4-0.3-0.6-0.3c-0.3,0-0.5,0.1-0.6,0.3c-0.1,0.2-0.2,0.5-0.2,0.8v2.6
				c-0.3-0.4-0.7-0.6-1-0.8c-0.4-0.2-0.8-0.3-1.3-0.3c-0.9,0-1.6,0.3-2.1,0.9c-0.5,0.6-0.8,1.5-0.8,2.6c0,0.5,0.1,1,0.2,1.4
				c0.1,0.5,0.3,0.8,0.6,1.2c0.3,0.3,0.6,0.6,0.9,0.8c0.4,0.2,0.8,0.3,1.2,0.3c0.3,0,0.6,0,0.9-0.1c0.3-0.1,0.5-0.2,0.8-0.4
				c0.2-0.2,0.5-0.4,0.7-0.7v0.2c0,0.3,0.1,0.6,0.2,0.8c0.2,0.2,0.4,0.3,0.6,0.3c0.2,0,0.4-0.1,0.6-0.3c0.2-0.2,0.2-0.4,0.2-0.8
				v-7.8C-297.1,476.4-297.2,476.1-297.4,475.9z M-299.1,483.1c-0.1,0.3-0.4,0.6-0.6,0.7c-0.3,0.2-0.5,0.2-0.8,0.2
				c-0.3,0-0.6-0.1-0.8-0.3c-0.3-0.2-0.5-0.4-0.6-0.8c-0.1-0.3-0.2-0.7-0.2-1.2c0-0.5,0.1-0.8,0.2-1.2c0.1-0.3,0.3-0.6,0.6-0.8
				c0.3-0.2,0.5-0.3,0.9-0.3c0.3,0,0.6,0.1,0.9,0.3c0.3,0.2,0.5,0.4,0.6,0.8c0.1,0.3,0.2,0.7,0.2,1.2
				C-298.9,482.4-299,482.8-299.1,483.1z"/>
			<linearGradient id="SVGID_9_" gradientUnits="userSpaceOnUse" x1="-293.2808" y1="480.5762" x2="-286.4209" y2="480.5762">
				<stop  offset="0" style="stop-color:#FAFAFA"/>
				<stop  offset="1" style="stop-color:#EEEEEE"/>
			</linearGradient>
			<path class="st16" d="M-286.8,479.9c-0.2-0.5-0.6-0.9-1-1.2c-0.4-0.3-1-0.4-1.5-0.4c-0.5,0-0.9,0.1-1.3,0.3
				c-0.4,0.2-0.7,0.4-1,0.8v-2.7c0-0.3-0.1-0.6-0.2-0.7c-0.2-0.2-0.4-0.3-0.6-0.3c-0.3,0-0.5,0.1-0.6,0.3c-0.1,0.2-0.2,0.5-0.2,0.8
				v7.7c0,0.3,0.1,0.6,0.2,0.8c0.1,0.2,0.3,0.3,0.6,0.3s0.4-0.1,0.6-0.3c0.2-0.2,0.2-0.4,0.2-0.8v-0.2c0.2,0.2,0.4,0.4,0.5,0.5
				c0.1,0.1,0.3,0.2,0.4,0.3c0.2,0.1,0.4,0.2,0.6,0.3c0.2,0.1,0.5,0.1,0.8,0.1c0.4,0,0.9-0.1,1.2-0.3c0.4-0.2,0.7-0.4,0.9-0.8
				c0.3-0.3,0.5-0.7,0.6-1.1c0.1-0.5,0.2-0.9,0.2-1.5C-286.4,481.1-286.5,480.5-286.8,479.9z M-288.7,483.5
				c-0.3,0.4-0.7,0.6-1.1,0.6c-0.5,0-0.9-0.2-1.3-0.6c-0.3-0.4-0.5-0.9-0.5-1.6c0-0.5,0.1-0.9,0.2-1.2c0.1-0.4,0.4-0.6,0.6-0.8
				c0.3-0.2,0.6-0.3,0.9-0.3c0.3,0,0.6,0.1,0.8,0.3c0.3,0.2,0.4,0.4,0.6,0.8c0.1,0.3,0.2,0.7,0.2,1.2
				C-288.2,482.6-288.3,483.1-288.7,483.5z"/>
			<linearGradient id="SVGID_10_" gradientUnits="userSpaceOnUse" x1="-286.541" y1="483.1816" x2="-279.8911" y2="483.1816">
				<stop  offset="0" style="stop-color:#FAFAFA"/>
				<stop  offset="1" style="stop-color:#EEEEEE"/>
			</linearGradient>
			<path class="st17" d="M-280,478.7c-0.1-0.1-0.2-0.2-0.3-0.3c-0.1-0.1-0.3-0.1-0.4-0.1c-0.2,0-0.3,0-0.4,0.1
				c-0.1,0.1-0.2,0.2-0.3,0.4c-0.1,0.2-0.2,0.4-0.3,0.8l-1.4,4l-1.5-4.3c-0.1-0.3-0.2-0.5-0.3-0.7c-0.1-0.2-0.3-0.2-0.6-0.2
				c-0.1,0-0.3,0-0.4,0.1c-0.1,0.1-0.3,0.2-0.3,0.3c-0.1,0.1-0.1,0.3-0.1,0.4c0,0.1,0.1,0.4,0.2,0.7l2.2,5.4l-0.2,0.4
				c-0.1,0.3-0.2,0.5-0.3,0.7c-0.1,0.2-0.2,0.3-0.3,0.3c-0.1,0.1-0.3,0.1-0.5,0.1c-0.1,0-0.2,0-0.3,0c-0.1,0-0.2,0-0.3,0
				c-0.2,0-0.4,0.1-0.5,0.2c-0.1,0.1-0.2,0.3-0.2,0.5c0,0.3,0.1,0.5,0.4,0.6c0.3,0.1,0.6,0.2,1.2,0.2c0.5,0,0.9-0.1,1.3-0.2
				c0.3-0.2,0.6-0.4,0.8-0.7c0.2-0.3,0.4-0.7,0.6-1.2l2.3-6c0-0.2,0.1-0.3,0.1-0.5c0-0.1,0.1-0.3,0.1-0.3
				C-279.9,478.9-279.9,478.8-280,478.7z"/>
		</g>
		<g>
			<linearGradient id="SVGID_11_" gradientUnits="userSpaceOnUse" x1="-259.5645" y1="480.5703" x2="-254.4375" y2="480.5703">
				<stop  offset="0" style="stop-color:#FAFAFA"/>
				<stop  offset="1" style="stop-color:#EEEEEE"/>
			</linearGradient>
			<path class="st18" d="M-258.7,478.5h0.4v-0.5c0-0.6,0.1-1,0.2-1.3c0.1-0.3,0.4-0.6,0.7-0.7c0.3-0.1,0.8-0.2,1.4-0.2
				c1,0,1.5,0.2,1.5,0.8c0,0.2-0.1,0.3-0.2,0.4c-0.1,0.1-0.2,0.2-0.4,0.2c-0.1,0-0.2,0-0.4,0c-0.2,0-0.3,0-0.4,0
				c-0.3,0-0.5,0.1-0.6,0.3c-0.1,0.2-0.1,0.5-0.1,0.8v0.4h0.4c0.7,0,1,0.2,1,0.6c0,0.3-0.1,0.5-0.3,0.5c-0.2,0.1-0.4,0.1-0.7,0.1
				h-0.4v4.7c0,0.3-0.1,0.6-0.3,0.8c-0.2,0.2-0.4,0.3-0.6,0.3c-0.2,0-0.5-0.1-0.6-0.3c-0.2-0.2-0.2-0.4-0.2-0.8v-4.7h-0.5
				c-0.3,0-0.5-0.1-0.6-0.2c-0.1-0.1-0.2-0.3-0.2-0.5C-259.6,478.7-259.3,478.5-258.7,478.5L-258.7,478.5z"/>
			<linearGradient id="SVGID_12_" gradientUnits="userSpaceOnUse" x1="-254.6885" y1="481.8774" x2="-249.8594" y2="481.8774">
				<stop  offset="0" style="stop-color:#FAFAFA"/>
				<stop  offset="1" style="stop-color:#EEEEEE"/>
			</linearGradient>
			<path class="st19" d="M-252.9,482.9v1.5c0,0.4-0.1,0.6-0.3,0.8c-0.2,0.2-0.4,0.3-0.6,0.3c-0.3,0-0.5-0.1-0.6-0.3
				c-0.2-0.2-0.2-0.4-0.2-0.8v-4.9c0-0.8,0.3-1.2,0.9-1.2c0.3,0,0.5,0.1,0.6,0.3c0.1,0.2,0.2,0.5,0.2,0.8c0.2-0.4,0.4-0.6,0.6-0.8
				c0.2-0.2,0.5-0.3,0.9-0.3c0.4,0,0.7,0.1,1.1,0.3c0.3,0.2,0.5,0.4,0.5,0.7c0,0.2-0.1,0.4-0.2,0.5c-0.1,0.1-0.3,0.2-0.5,0.2
				c-0.1,0-0.2,0-0.5-0.1c-0.2-0.1-0.5-0.1-0.7-0.1c-0.3,0-0.5,0.1-0.6,0.2c-0.2,0.1-0.3,0.3-0.4,0.6c-0.1,0.3-0.1,0.6-0.2,1
				C-252.9,481.9-252.9,482.4-252.9,482.9L-252.9,482.9z"/>
			<linearGradient id="SVGID_13_" gradientUnits="userSpaceOnUse" x1="-250.0811" y1="481.8711" x2="-243.4014" y2="481.8711">
				<stop  offset="0" style="stop-color:#FAFAFA"/>
				<stop  offset="1" style="stop-color:#EEEEEE"/>
			</linearGradient>
			<path class="st20" d="M-244.1,483c-0.2,0-0.3,0-0.4,0.1c-0.2,0.2-0.4,0.4-0.5,0.5c-0.1,0.1-0.3,0.2-0.4,0.3
				c-0.2,0.1-0.3,0.2-0.5,0.2c-0.2,0.1-0.4,0.1-0.6,0.1c-0.3,0-0.6-0.1-0.9-0.2c-0.3-0.2-0.5-0.4-0.6-0.7c-0.2-0.3-0.2-0.7-0.2-1.1
				h3.4c0.5,0,0.8-0.1,1.1-0.2c0.3-0.1,0.4-0.4,0.4-0.9c0-0.5-0.1-0.9-0.4-1.4c-0.2-0.5-0.6-0.8-1.1-1.1c-0.5-0.3-1.1-0.4-1.8-0.4
				c-0.5,0-1,0.1-1.4,0.3c-0.4,0.2-0.8,0.4-1.1,0.7c-0.3,0.3-0.5,0.7-0.7,1.1c-0.2,0.5-0.2,0.9-0.2,1.5c0,1.1,0.3,2,0.9,2.6
				c0.6,0.6,1.5,1,2.6,1c0.5,0,0.9-0.1,1.3-0.2c0.4-0.1,0.7-0.3,1-0.5c0.3-0.2,0.4-0.4,0.6-0.6c0.1-0.2,0.2-0.4,0.2-0.5
				c0-0.2-0.1-0.3-0.2-0.4C-243.8,483.1-243.9,483-244.1,483z M-247.8,480c0.3-0.3,0.6-0.4,1.1-0.4c0.5,0,0.8,0.1,1.1,0.4
				c0.3,0.3,0.4,0.7,0.5,1.3h-3.2C-248.2,480.7-248.1,480.3-247.8,480z"/>
			<linearGradient id="SVGID_14_" gradientUnits="userSpaceOnUse" x1="-242.7812" y1="481.8711" x2="-236.0908" y2="481.8711">
				<stop  offset="0" style="stop-color:#FAFAFA"/>
				<stop  offset="1" style="stop-color:#EEEEEE"/>
			</linearGradient>
			<path class="st21" d="M-236.8,483c-0.2,0-0.3,0-0.4,0.1c-0.2,0.2-0.4,0.4-0.5,0.5c-0.1,0.1-0.3,0.2-0.5,0.3
				c-0.2,0.1-0.3,0.2-0.5,0.2c-0.2,0.1-0.4,0.1-0.6,0.1c-0.3,0-0.6-0.1-0.9-0.2c-0.3-0.2-0.5-0.4-0.6-0.7c-0.2-0.3-0.2-0.7-0.3-1.1
				h3.4c0.5,0,0.8-0.1,1.1-0.2c0.3-0.1,0.4-0.4,0.4-0.9c0-0.5-0.1-0.9-0.4-1.4c-0.2-0.5-0.6-0.8-1.1-1.1c-0.5-0.3-1.1-0.4-1.8-0.4
				c-0.5,0-1,0.1-1.4,0.3c-0.4,0.2-0.8,0.4-1.1,0.7c-0.3,0.3-0.5,0.7-0.7,1.1c-0.2,0.5-0.2,0.9-0.2,1.5c0,1.1,0.3,2,1,2.6
				c0.6,0.6,1.5,1,2.6,1c0.5,0,0.9-0.1,1.3-0.2c0.4-0.1,0.7-0.3,0.9-0.5c0.3-0.2,0.4-0.4,0.6-0.6c0.1-0.2,0.2-0.4,0.2-0.5
				c0-0.2,0-0.3-0.2-0.4C-236.5,483.1-236.6,483-236.8,483z M-240.5,480c0.3-0.3,0.6-0.4,1.1-0.4c0.5,0,0.8,0.1,1.1,0.4
				c0.3,0.3,0.4,0.7,0.5,1.3h-3.2C-240.9,480.7-240.8,480.3-240.5,480z"/>
			<linearGradient id="SVGID_15_" gradientUnits="userSpaceOnUse" x1="-235.3506" y1="483.1816" x2="-228.4805" y2="483.1816">
				<stop  offset="0" style="stop-color:#FAFAFA"/>
				<stop  offset="1" style="stop-color:#EEEEEE"/>
			</linearGradient>
			<path class="st22" d="M-228.5,481.7c0-0.7-0.1-1.2-0.4-1.7c-0.3-0.5-0.6-0.9-1.1-1.2c-0.5-0.3-1-0.4-1.5-0.4
				c-0.5,0-0.8,0.1-1.2,0.3c-0.4,0.2-0.7,0.5-1,0.9v-0.2c0-0.3-0.1-0.6-0.2-0.7c-0.2-0.2-0.4-0.3-0.6-0.3s-0.4,0.1-0.6,0.2
				c-0.2,0.2-0.2,0.4-0.2,0.8v7.6c0,0.4,0.1,0.7,0.2,0.9c0.1,0.2,0.3,0.3,0.7,0.3c0.6,0,0.8-0.4,0.8-1.2v-2.6
				c0.2,0.2,0.4,0.4,0.6,0.6c0.1,0.1,0.3,0.2,0.4,0.3c0.3,0.2,0.8,0.3,1.3,0.3c0.4,0,0.8-0.1,1.2-0.2c0.4-0.2,0.7-0.4,1-0.7
				c0.3-0.3,0.5-0.7,0.6-1.1c0.2-0.5,0.2-1,0.2-1.5C-228.5,481.8-228.5,481.7-228.5,481.7z M-230.5,483.1c-0.2,0.3-0.3,0.6-0.6,0.8
				c-0.2,0.2-0.5,0.3-0.8,0.3c-0.1,0-0.1,0-0.2,0c-0.4,0-0.8-0.2-1.1-0.6c-0.3-0.4-0.5-0.9-0.5-1.6c0-0.7,0.2-1.3,0.5-1.7
				c0.3-0.4,0.7-0.6,1.2-0.6c0.3,0,0.6,0.1,0.8,0.3c0.3,0.2,0.4,0.4,0.6,0.8c0.2,0.3,0.2,0.7,0.2,1.2c0,0.4-0.1,0.8-0.2,1.1
				C-230.4,483-230.5,483-230.5,483.1z"/>
			<linearGradient id="SVGID_16_" gradientUnits="userSpaceOnUse" x1="-227.6006" y1="480.6064" x2="-225.8408" y2="480.6064">
				<stop  offset="0" style="stop-color:#FAFAFA"/>
				<stop  offset="1" style="stop-color:#EEEEEE"/>
			</linearGradient>
			<path class="st23" d="M-226.1,478.6c-0.2-0.2-0.4-0.3-0.6-0.3c-0.3,0-0.5,0.1-0.6,0.3c-0.2,0.2-0.3,0.4-0.3,0.8v5
				c0,0.3,0.1,0.6,0.3,0.8c0.2,0.2,0.4,0.3,0.6,0.3c0.3,0,0.5-0.1,0.6-0.3c0.2-0.2,0.3-0.4,0.3-0.8v-5.1
				C-225.8,479-225.9,478.7-226.1,478.6z M-226.1,476c-0.2-0.2-0.4-0.2-0.6-0.2c-0.2,0-0.4,0.1-0.6,0.2c-0.2,0.2-0.3,0.4-0.3,0.6
				c0,0.3,0.1,0.5,0.3,0.6c0.2,0.2,0.4,0.2,0.6,0.2c0.2,0,0.4-0.1,0.6-0.2c0.2-0.1,0.3-0.4,0.3-0.6
				C-225.8,476.3-225.9,476.1-226.1,476z"/>
			<linearGradient id="SVGID_17_" gradientUnits="userSpaceOnUse" x1="-224.4277" y1="480.5703" x2="-218.3721" y2="480.5703">
				<stop  offset="0" style="stop-color:#FAFAFA"/>
				<stop  offset="1" style="stop-color:#EEEEEE"/>
			</linearGradient>
			<path class="st24" d="M-220.2,484.6l-1.5-2.6l-1,0.9v1.4c0,0.3-0.1,0.6-0.3,0.8c-0.2,0.2-0.4,0.3-0.6,0.3c-0.3,0-0.5-0.1-0.6-0.3
				c-0.2-0.2-0.2-0.4-0.2-0.8v-7.5c0-0.4,0.1-0.7,0.2-0.9c0.2-0.2,0.4-0.3,0.6-0.3c0.3,0,0.5,0.1,0.6,0.3c0.2,0.2,0.2,0.5,0.2,0.8
				v4.3l2-2.1c0.2-0.3,0.4-0.4,0.6-0.5c0.1-0.1,0.3-0.1,0.5-0.1c0.2,0,0.4,0.1,0.6,0.2c0.1,0.1,0.2,0.3,0.2,0.5c0,0.3-0.2,0.6-0.7,1
				l-0.9,0.9l1.8,2.8c0.1,0.2,0.2,0.4,0.3,0.5c0.1,0.1,0.1,0.2,0.1,0.3c0,0.3-0.1,0.5-0.2,0.7c-0.2,0.2-0.4,0.2-0.6,0.2
				c-0.2,0-0.4-0.1-0.5-0.2C-219.8,485.2-220,485-220.2,484.6L-220.2,484.6z"/>
			<linearGradient id="SVGID_18_" gradientUnits="userSpaceOnUse" x1="-217.3311" y1="484.4825" x2="-215.3906" y2="484.4825">
				<stop  offset="0" style="stop-color:#FAFAFA"/>
				<stop  offset="1" style="stop-color:#EEEEEE"/>
			</linearGradient>
			<path class="st25" d="M-216.4,485.5c-0.3,0-0.5-0.1-0.7-0.3c-0.2-0.2-0.3-0.4-0.3-0.7c0-0.3,0.1-0.5,0.3-0.7
				c0.2-0.2,0.4-0.3,0.7-0.3c0.3,0,0.5,0.1,0.7,0.3c0.2,0.2,0.3,0.4,0.3,0.7c0,0.3-0.1,0.5-0.3,0.7
				C-215.9,485.4-216.1,485.5-216.4,485.5L-216.4,485.5z"/>
			<linearGradient id="SVGID_19_" gradientUnits="userSpaceOnUse" x1="-214.2568" y1="481.8657" x2="-207.6113" y2="481.8657">
				<stop  offset="0" style="stop-color:#FAFAFA"/>
				<stop  offset="1" style="stop-color:#EEEEEE"/>
			</linearGradient>
			<path class="st26" d="M-207.6,483.3c0,0.2-0.1,0.5-0.2,0.7c-0.1,0.3-0.3,0.5-0.6,0.7c-0.3,0.2-0.6,0.4-1,0.5
				c-0.4,0.1-0.9,0.2-1.4,0.2c-1.1,0-1.9-0.3-2.5-0.9c-0.6-0.6-0.9-1.5-0.9-2.5c0-0.7,0.1-1.4,0.4-1.9c0.3-0.6,0.7-1,1.2-1.3
				c0.5-0.3,1.2-0.5,1.9-0.5c0.5,0,0.9,0.1,1.3,0.2c0.4,0.1,0.7,0.3,1,0.5c0.3,0.2,0.5,0.4,0.6,0.7c0.1,0.2,0.2,0.5,0.2,0.7
				c0,0.2-0.1,0.4-0.2,0.5c-0.2,0.1-0.3,0.2-0.6,0.2c-0.1,0-0.3,0-0.4-0.1c-0.1-0.1-0.2-0.2-0.3-0.4c-0.2-0.3-0.4-0.6-0.7-0.7
				c-0.2-0.2-0.5-0.2-0.9-0.2c-0.5,0-0.9,0.2-1.3,0.6c-0.3,0.4-0.5,1-0.5,1.7c0,0.3,0,0.6,0.1,0.9c0.1,0.3,0.2,0.5,0.4,0.7
				c0.2,0.2,0.3,0.3,0.6,0.4c0.2,0.1,0.5,0.2,0.7,0.2c0.4,0,0.7-0.1,0.9-0.2c0.3-0.2,0.5-0.4,0.7-0.7c0.1-0.2,0.2-0.4,0.3-0.5
				c0.1-0.1,0.3-0.2,0.5-0.2c0.2,0,0.4,0.1,0.5,0.2C-207.7,482.9-207.6,483.1-207.6,483.3L-207.6,483.3z"/>
			<linearGradient id="SVGID_20_" gradientUnits="userSpaceOnUse" x1="-207.0215" y1="481.8813" x2="-200.0312" y2="481.8813">
				<stop  offset="0" style="stop-color:#FAFAFA"/>
				<stop  offset="1" style="stop-color:#EEEEEE"/>
			</linearGradient>
			<path class="st27" d="M-200.3,480.4c-0.2-0.4-0.4-0.8-0.7-1.1c-0.3-0.3-0.7-0.6-1.1-0.7c-0.4-0.2-0.9-0.3-1.5-0.3
				c-0.5,0-1,0.1-1.4,0.3c-0.4,0.2-0.8,0.4-1.1,0.7c-0.3,0.3-0.5,0.7-0.7,1.1c-0.2,0.4-0.2,0.9-0.2,1.5c0,0.5,0.1,1,0.2,1.5
				c0.2,0.4,0.4,0.8,0.7,1.1c0.3,0.3,0.7,0.6,1.1,0.7c0.4,0.2,0.9,0.3,1.4,0.3c0.5,0,1-0.1,1.5-0.3c0.4-0.2,0.8-0.4,1.1-0.7
				c0.3-0.3,0.5-0.7,0.7-1.1c0.2-0.4,0.2-0.9,0.2-1.5C-200,481.3-200.1,480.9-200.3,480.4z M-202.3,483.5c-0.3,0.4-0.7,0.6-1.3,0.6
				c-0.4,0-0.7-0.1-0.9-0.3c-0.3-0.2-0.5-0.5-0.6-0.8c-0.1-0.3-0.2-0.7-0.2-1.2c0-0.5,0.1-0.9,0.2-1.2c0.1-0.3,0.3-0.6,0.6-0.8
				c0.3-0.2,0.6-0.3,0.9-0.3c0.5,0,1,0.2,1.3,0.6c0.3,0.4,0.5,1,0.5,1.7C-201.8,482.6-202,483.1-202.3,483.5z"/>
			<linearGradient id="SVGID_21_" gradientUnits="userSpaceOnUse" x1="-199.2734" y1="481.8779" x2="-189.209" y2="481.8779">
				<stop  offset="0" style="stop-color:#FAFAFA"/>
				<stop  offset="1" style="stop-color:#EEEEEE"/>
			</linearGradient>
			<path class="st28" d="M-193.3,482v2.3c0,0.4-0.1,0.6-0.3,0.8c-0.2,0.2-0.4,0.3-0.7,0.3c-0.3,0-0.5-0.1-0.6-0.3
				c-0.2-0.2-0.3-0.5-0.3-0.8v-2.8c0-0.4,0-0.8,0-1c0-0.2-0.1-0.4-0.2-0.6c-0.1-0.2-0.3-0.2-0.6-0.2c-0.6,0-1,0.2-1.1,0.6
				c-0.2,0.4-0.3,1-0.3,1.7v2.4c0,0.4-0.1,0.6-0.2,0.8c-0.2,0.2-0.4,0.3-0.7,0.3c-0.3,0-0.5-0.1-0.7-0.3c-0.2-0.2-0.3-0.5-0.3-0.8
				v-5c0-0.3,0.1-0.6,0.2-0.8c0.2-0.2,0.4-0.3,0.6-0.3c0.2,0,0.4,0.1,0.6,0.2c0.2,0.2,0.2,0.4,0.2,0.7v0.2c0.3-0.4,0.6-0.6,1-0.8
				c0.4-0.2,0.7-0.3,1.2-0.3c0.4,0,0.8,0.1,1.1,0.3c0.3,0.2,0.6,0.4,0.8,0.8c0.3-0.4,0.6-0.6,1-0.8c0.3-0.2,0.7-0.3,1.1-0.3
				c0.5,0,0.9,0.1,1.2,0.3c0.3,0.2,0.6,0.5,0.8,0.8c0.1,0.3,0.2,0.8,0.2,1.5v3.4c0,0.4-0.1,0.6-0.2,0.8c-0.2,0.2-0.4,0.3-0.7,0.3
				c-0.3,0-0.5-0.1-0.7-0.3c-0.2-0.2-0.3-0.5-0.3-0.8v-3c0-0.4,0-0.7,0-0.9c0-0.2-0.1-0.4-0.3-0.6c-0.1-0.2-0.4-0.2-0.6-0.2
				c-0.2,0-0.5,0.1-0.7,0.2c-0.2,0.1-0.4,0.3-0.5,0.6C-193.3,480.7-193.3,481.3-193.3,482L-193.3,482z"/>
		</g>
		<g>
			<linearGradient id="SVGID_22_" gradientUnits="userSpaceOnUse" x1="-275.1294" y1="481.4472" x2="-275.1279" y2="481.4472">
				<stop  offset="0" style="stop-color:#FAFAFA"/>
				<stop  offset="1" style="stop-color:#EEEEEE"/>
			</linearGradient>
			<path class="st29" d="M-275.1,481.5C-275.1,481.5-275.1,481.4-275.1,481.5C-275.1,481.4-275.1,481.5-275.1,481.5z"/>
			<linearGradient id="SVGID_23_" gradientUnits="userSpaceOnUse" x1="-275.1177" y1="481.7778" x2="-275.0371" y2="481.7778">
				<stop  offset="0" style="stop-color:#FAFAFA"/>
				<stop  offset="1" style="stop-color:#EEEEEE"/>
			</linearGradient>
			<path class="st30" d="M-275,482C-275,482-275,482-275,482c0-0.2-0.1-0.3-0.1-0.5C-275.1,481.7-275.1,481.9-275,482z"/>
			<linearGradient id="SVGID_24_" gradientUnits="userSpaceOnUse" x1="-274.4692" y1="483.6353" x2="-274.4575" y2="483.6353">
				<stop  offset="0" style="stop-color:#FAFAFA"/>
				<stop  offset="1" style="stop-color:#EEEEEE"/>
			</linearGradient>
			<path class="st31" d="M-274.5,483.6C-274.5,483.6-274.5,483.6-274.5,483.6C-274.5,483.6-274.5,483.6-274.5,483.6z"/>
			<linearGradient id="SVGID_25_" gradientUnits="userSpaceOnUse" x1="-274.5576" y1="483.4927" x2="-274.5132" y2="483.4927">
				<stop  offset="0" style="stop-color:#FAFAFA"/>
				<stop  offset="1" style="stop-color:#EEEEEE"/>
			</linearGradient>
			<path class="st32" d="M-274.5,483.5C-274.5,483.5-274.5,483.5-274.5,483.5C-274.5,483.5-274.5,483.5-274.5,483.5z"/>
			<linearGradient id="SVGID_26_" gradientUnits="userSpaceOnUse" x1="-274.876" y1="483.0362" x2="-274.5659" y2="483.0362">
				<stop  offset="0" style="stop-color:#FAFAFA"/>
				<stop  offset="1" style="stop-color:#EEEEEE"/>
			</linearGradient>
			<path class="st33" d="M-274.9,482.6c0.1,0.3,0.2,0.5,0.3,0.8C-274.7,483.2-274.8,482.9-274.9,482.6
				C-274.9,482.6-274.9,482.6-274.9,482.6z"/>
			<linearGradient id="SVGID_27_" gradientUnits="userSpaceOnUse" x1="-271.4814" y1="473.8184" x2="-267.3662" y2="473.8184">
				<stop  offset="0" style="stop-color:#FAFAFA"/>
				<stop  offset="1" style="stop-color:#EEEEEE"/>
			</linearGradient>
			<path class="st34" d="M-268.3,474.7c0.3,0,0.6,0,0.9,0.1l0.1-0.5c0,0-0.8-0.2-1.8-0.2l-0.1-0.3c0.3-0.1,0.6-0.4,0.6-0.7
				c0-0.4-0.3-0.7-0.7-0.7c-0.4,0-0.7,0.3-0.7,0.7c0,0.3,0.2,0.6,0.6,0.7l0.1,0.3c-1.1,0.2-2,0.6-2,0.6l0.2,0.5
				c0.7-0.2,1.3-0.4,1.8-0.4C-269,474.7-268.6,474.7-268.3,474.7z"/>
			<linearGradient id="SVGID_28_" gradientUnits="userSpaceOnUse" x1="-277.5664" y1="478.6529" x2="-274.3901" y2="478.6529">
				<stop  offset="0" style="stop-color:#FAFAFA"/>
				<stop  offset="1" style="stop-color:#EEEEEE"/>
			</linearGradient>
			<path class="st35" d="M-274.5,477.3L-274.5,477.3c0,0,0.1-0.1,0.1-0.1l-0.2-0.2l-0.3-0.2c0,0-0.5,0.5-0.9,1.4c0,0,0-0.1-0.1-0.1
				c-0.1-0.1-0.3-0.2-0.5-0.2c0,0,0,0,0,0c-0.1,0-0.2,0-0.3-0.1c0.1-0.1,0.1-0.2,0.1-0.3c0-0.2-0.2-0.5-0.5-0.5
				c-0.2,0-0.5,0.2-0.5,0.5c0,0.3,0.2,0.5,0.5,0.5c0,0,0.1,0,0.1,0c0.1,0.1,0.3,0.2,0.5,0.2c0.1,0,0.2,0,0.3,0.1
				c0.1,0.1,0.1,0.2,0.1,0.3c0,0,0,0,0,0c-0.3,0.8-0.2,1.8-0.2,1.8l0.7,0c0-0.4,0.1-1,0.3-1.5C-274.9,478-274.5,477.4-274.5,477.3z"
				/>
			<linearGradient id="SVGID_29_" gradientUnits="userSpaceOnUse" x1="-264.7656" y1="477.1025" x2="-261.6367" y2="477.1025">
				<stop  offset="0" style="stop-color:#FAFAFA"/>
				<stop  offset="1" style="stop-color:#EEEEEE"/>
			</linearGradient>
			<path class="st36" d="M-262.1,475.3c-0.2,0-0.5,0.2-0.5,0.5c0,0,0,0.1,0,0.1c-0.1,0.1-0.2,0.3-0.2,0.5c0,0.1,0,0.2-0.1,0.3
				c-0.1,0.1-0.1,0.1-0.2,0.1c-0.5-0.7-1.2-1.2-1.2-1.2l-0.5,0.6c0.4,0.4,0.8,0.8,1.2,1.3c0.3,0.4,0.5,0.9,0.8,1.4l0.7-0.3
				c0,0-0.3-0.8-0.8-1.5c0.1,0,0.2-0.1,0.2-0.1c0.1-0.1,0.2-0.3,0.2-0.5c0-0.1,0-0.2,0.1-0.3c0.1,0.1,0.2,0.1,0.3,0.1
				c0.3,0,0.5-0.2,0.5-0.5C-261.6,475.5-261.8,475.3-262.1,475.3z"/>
			<linearGradient id="SVGID_30_" gradientUnits="userSpaceOnUse" x1="-274.8735" y1="483.5327" x2="-262.6127" y2="483.5327">
				<stop  offset="0" style="stop-color:#FAFAFA"/>
				<stop  offset="1" style="stop-color:#EEEEEE"/>
			</linearGradient>
			<path class="st37" d="M-263.9,481.6c-1,0.5-2.5,1.1-4.6,1.4c-0.8,0.1-1.6,0.2-2.3,0.2c-0.9,0-1.8-0.1-2.4-0.2
				c-0.7-0.1-1.3-0.2-1.6-0.3c0.1,0.3,0.2,0.5,0.3,0.8c0,0,0,0,0,0c0,0,0,0.1,0,0.1c0,0,0,0.1,0,0.1c0,0,0,0,0,0
				c0.2,0.4,0.5,0.7,0.7,1c1,1.1,2,1.2,2,1.2l0,0l0,0c0,0,0.9,0.3,2.2,0.3c1.3,0,2.6-0.3,3.8-0.8c0.9-0.5,1.8-1.2,2.2-1.8
				c0.3-0.5,0.6-1,0.7-1.6c0.1-0.3,0.1-0.8,0.1-1.2C-262.9,481-263.3,481.3-263.9,481.6z"/>
			<linearGradient id="SVGID_31_" gradientUnits="userSpaceOnUse" x1="-275.171" y1="478.806" x2="-262.7207" y2="478.806">
				<stop  offset="0" style="stop-color:#FAFAFA"/>
				<stop  offset="1" style="stop-color:#EEEEEE"/>
			</linearGradient>
			<path class="st38" d="M-263.9,477.7c-1.3-1.9-2.8-2.4-3.6-2.6c-0.3,0-0.5-0.1-0.8-0.1c-0.3,0-0.7,0-1.2,0.1
				c-0.5,0.1-1.1,0.2-1.7,0.4c-0.9,0.3-1.7,0.8-2.4,1.4l0,0c-0.1,0.1-0.3,0.3-0.5,0.6c0,0-0.4,0.6-0.8,1.5c-0.3,0.7-0.2,1.7-0.2,1.7
				c0,0.2,0,0.5,0,0.7c0,0,0,0,0,0c0,0,0,0,0,0.1c0,0.2,0.1,0.3,0.1,0.5c0.5,0.1,3.3,0.8,6.5,0.3c2-0.3,3.5-0.9,4.4-1.3
				c0.8-0.4,1.3-0.7,1.4-0.8C-262.9,479.5-263.4,478.4-263.9,477.7z M-271.4,480.9c-1.1,0-1.9-0.8-1.9-1.9c0-1,0.8-1.9,1.9-1.9
				c1.1,0,1.9,0.8,1.9,1.9C-269.5,480-270.4,480.9-271.4,480.9z M-265.9,479.5c-0.7,0-1.2-0.5-1.2-1.2c0-0.7,0.5-1.2,1.2-1.2
				c0.6,0,1.2,0.5,1.2,1.2C-264.7,478.9-265.2,479.5-265.9,479.5z"/>
		</g>
	</g>
</g>
</svg>
