<svg width="512" height="511" viewBox="0 0 512 511" fill="none" xmlns="http://www.w3.org/2000/svg">
<path d="M418.329 230.34L373.261 170.716C366.497 161.763 372.208 149.026 383.54 147.793L402.875 145.681C395.368 131.555 385.672 118.656 373.878 107.156C342.364 76.4242 299.654 60.0642 255.408 61.4622C249.793 61.6386 244.983 57.5748 244.457 52.1131L244.036 47.7712L243.449 41.6735C242.878 35.7765 247.501 30.6038 253.573 30.3837C306.914 28.4765 358.459 48.1132 396.442 85.1525C413.49 101.777 426.893 120.852 436.43 142.014L459.034 139.55C470.366 138.308 478.825 149.501 474.252 159.69L443.826 227.557C439.258 237.742 425.093 239.292 418.329 230.34V230.34Z" fill="#FFCC2A"/>
<path d="M402.875 145.681C395.368 131.555 385.672 118.656 373.878 107.156C342.364 76.4242 299.654 60.0642 255.408 61.4622C249.793 61.6386 244.983 57.5748 244.457 52.1131L244.036 47.7712C370.358 38.7498 402.875 145.681 402.875 145.681V145.681Z" fill="#D54653"/>
<path d="M79.1629 250.509L48.7331 318.375C44.1644 328.564 52.6213 339.756 63.954 338.518L86.5558 336.051C96.0957 357.214 109.499 376.293 126.543 392.915C164.528 429.956 216.073 449.587 269.412 447.681C275.484 447.464 280.11 442.291 279.54 436.392L278.53 425.95C278.003 420.494 273.196 416.428 267.58 416.606C223.334 418.005 180.622 401.643 149.106 370.911C137.315 359.413 127.618 346.511 120.114 332.386L139.446 330.275C150.779 329.038 156.488 316.3 149.722 307.349L104.659 247.726C97.8954 238.775 83.7308 240.321 79.1629 250.509Z" fill="black"/>
<path d="M58.3656 338.1C50.0775 335.894 44.9573 326.795 48.7387 318.375L79.1649 250.507C83.7329 240.322 97.8975 238.772 104.662 247.725L108.613 252.956C101.594 250.218 92.8988 253.015 89.5043 260.589L59.0772 328.456C57.6134 331.714 57.4876 335.073 58.3656 338.1V338.1Z" fill="#78C2A4"/>
<path d="M145.638 221.714C199.854 221.714 243.805 178.855 243.805 125.986C243.805 73.1169 199.854 30.2579 145.638 30.2579C91.4221 30.2579 47.4713 73.1169 47.4713 125.986C47.4713 178.855 91.4221 221.714 145.638 221.714Z" fill="#008080"/>
<path d="M145.638 190.627C182.248 190.627 211.926 161.686 211.926 125.986C211.926 90.2864 182.248 61.3459 145.638 61.3459C109.029 61.3459 79.3512 90.2864 79.3512 125.986C79.3512 161.686 109.029 190.627 145.638 190.627Z" fill="#008080"/>
<path d="M468.572 274.688C415.11 274.688 361.648 270.399 308.185 270.399C298.925 322.141 298.925 375.058 308.185 426.801H468.572C477.833 375.058 477.833 326.43 468.572 274.688V274.688Z" fill="#008080"/>
<path d="M334.103 426.803H308.186C298.933 375.057 298.933 322.145 308.186 270.398H334.103C324.838 322.145 324.838 375.057 334.103 426.803Z" fill="#008080"/>
<path d="M414.288 348.6L388.379 332.672L362.47 348.6V270.399H414.288V348.6Z" fill="#ECECEC"/>
<path d="M238.029 52.707C238.851 61.2496 246.274 67.7674 255.053 67.7666C255.238 67.7666 255.425 67.7641 255.611 67.7582C276.781 67.0911 297.449 70.5777 317.046 78.1213C336.698 85.6868 354.284 96.9539 369.312 111.609C378.302 120.382 386.071 130.062 392.491 140.477L382.823 141.531C375.182 142.364 368.78 146.963 365.698 153.834C362.614 160.707 363.497 168.416 368.061 174.459L374.444 182.904C376.563 185.705 380.609 186.302 383.479 184.236C386.352 182.171 386.964 178.227 384.846 175.426L378.465 166.985C375.882 163.565 376.956 160.181 377.537 158.885C378.119 157.589 379.936 154.527 384.259 154.056L403.591 151.947C405.705 151.717 407.568 150.485 408.571 148.655C409.575 146.825 409.589 144.63 408.61 142.788C400.818 128.114 390.672 114.627 378.451 102.7C362.162 86.8159 343.098 74.6028 321.789 66.3997C300.542 58.2209 278.154 54.4369 255.193 55.1628C252.967 55.235 251.096 53.6354 250.894 51.5225L249.876 41.0854C249.768 39.9672 250.128 38.8859 250.888 38.0407C251.324 37.5568 252.283 36.736 253.812 36.6805C279.507 35.7614 304.599 39.9159 328.407 49.0272C352.277 58.1621 373.631 71.8152 391.876 89.6077C408.306 105.63 421.306 124.114 430.514 144.548C431.651 147.071 434.344 148.583 437.147 148.276L459.759 145.813C464.078 145.334 466.546 147.933 467.407 149.07C468.266 150.208 470.078 153.274 468.331 157.165L437.9 225.033C436.158 228.922 432.621 229.708 431.18 229.865C429.74 230.021 426.113 230.019 423.53 226.599L400.096 195.597C397.979 192.796 393.935 192.2 391.061 194.264C388.188 196.329 387.576 200.274 389.694 203.075L413.126 234.073C417.198 239.466 423.442 242.523 430.174 242.523C430.982 242.523 431.798 242.478 432.617 242.389C440.261 241.555 446.663 236.953 449.742 230.081L480.17 162.217C483.256 155.343 482.373 147.634 477.809 141.594C473.245 135.556 465.956 132.453 458.32 133.29L440.374 135.244C430.667 115.049 417.442 96.7178 401.014 80.6972C381.504 61.6714 358.663 47.0697 333.128 37.2972C307.657 27.5482 280.81 23.1064 253.338 24.086C248.684 24.254 244.249 26.3107 241.175 29.73C238.091 33.1578 236.574 37.7265 237.012 42.27L238.029 52.707Z" fill="black"/>
<path d="M284.959 425.357C284.119 416.633 276.397 410.031 267.375 410.306C246.223 410.975 225.541 407.492 205.943 399.947C186.292 392.381 168.706 381.112 153.674 366.454C144.693 357.695 136.923 348.017 130.496 337.592L140.165 336.534C147.809 335.7 154.212 331.1 157.293 324.226C160.374 317.355 159.489 309.649 154.927 303.613L109.861 243.991C105.301 237.951 98.0204 234.844 90.3699 235.676C82.7262 236.51 76.3241 241.111 73.2449 247.984L42.8169 315.848C39.7317 322.72 40.6131 330.428 45.175 336.467C49.7369 342.508 57.0281 345.616 64.67 344.783L82.6099 342.823C83.6783 345.047 84.8026 347.271 85.9691 349.473C87.6078 352.563 91.5062 353.772 94.6767 352.175C97.8463 350.577 99.087 346.775 97.4483 343.684C95.6649 340.321 93.9918 336.903 92.4763 333.526C91.3425 330.997 88.6519 329.483 85.8373 329.79L63.2321 332.26C58.9054 332.734 56.4388 330.133 55.5799 328.995C54.72 327.857 52.9082 324.79 54.6554 320.9L85.086 253.032C86.8281 249.143 90.3656 248.357 91.8061 248.2C93.2448 248.044 96.8737 248.047 99.4566 251.467L144.524 311.092C147.103 314.504 146.032 317.884 145.451 319.179C144.87 320.474 143.053 323.538 138.726 324.01L119.394 326.127C117.279 326.358 115.418 327.59 114.415 329.42C113.413 331.251 113.399 333.444 114.378 335.287C122.183 349.977 132.33 363.46 144.536 375.364C160.827 391.25 179.891 403.464 201.198 411.667C222.449 419.85 244.848 423.628 267.795 422.902C270.029 422.83 271.891 424.429 272.094 426.542L273.111 436.979C273.219 438.097 272.86 439.179 272.099 440.024C271.663 440.508 270.704 441.329 269.176 441.384C243.48 442.301 218.388 438.149 194.581 429.037C170.711 419.902 149.356 406.249 131.111 388.457C123.479 381.014 116.5 372.939 110.371 364.457C108.316 361.613 104.287 360.93 101.367 362.935C98.4503 364.94 97.7524 368.87 99.8072 371.715C106.361 380.786 113.819 389.417 121.973 397.368C141.484 416.394 164.324 430.996 189.859 440.768C213.024 449.633 237.322 454.111 262.199 454.111C264.677 454.111 267.162 454.067 269.65 453.978C274.304 453.81 278.739 451.753 281.814 448.334C284.897 444.906 286.414 440.337 285.977 435.794L284.959 425.357Z" fill="black"/>
<path d="M145.638 228.016C203.331 228.016 250.267 182.246 250.267 125.986C250.267 69.7271 203.331 23.9563 145.638 23.9563C87.9458 23.9563 41.0098 69.7271 41.0098 125.986C41.0098 182.246 87.9458 228.016 145.638 228.016ZM145.638 36.5584C196.205 36.5584 237.344 76.6751 237.344 125.986C237.344 175.296 196.206 215.413 145.638 215.413C95.0708 215.413 53.9329 175.297 53.9329 125.986C53.9329 76.6759 95.0717 36.5584 145.638 36.5584Z" fill="black"/>
<path d="M145.638 196.928C185.753 196.928 218.387 165.103 218.387 125.986C218.387 86.8693 185.752 55.0448 145.638 55.0448C105.525 55.0448 72.8896 86.8693 72.8896 125.986C72.8896 165.103 105.525 196.928 145.638 196.928V196.928ZM145.638 67.646C178.627 67.646 205.464 93.8173 205.464 125.985C205.464 158.154 178.627 184.325 145.638 184.325C112.65 184.325 85.8127 158.154 85.8127 125.985C85.8127 93.8173 112.65 67.646 145.638 67.646V67.646Z" fill="black"/>
<path d="M119.354 160.856C126.89 164.815 132.081 166.056 138.633 166.397V170.281C138.633 173.76 141.525 176.582 145.094 176.582C148.664 176.582 151.556 173.76 151.556 170.281V165.945C165.334 163.531 173.724 153.749 175.107 144.105C176.716 132.878 169.342 123.234 156.32 119.538C148.092 117.202 138.971 114.368 133.704 111.049C131.25 109.504 131.269 107.022 131.498 105.68C131.98 102.863 134.354 99.4004 139.573 98.1377C141.693 97.6252 143.672 97.3807 145.494 97.3194C145.53 97.3168 145.566 97.3168 145.603 97.3143C153.583 97.0799 158.515 100.419 158.848 100.651C161.686 102.711 165.705 102.16 167.849 99.4071C170.008 96.6363 169.454 92.6835 166.613 90.5781C166.274 90.3277 160.679 86.2808 151.554 85.0575V81.6919C151.554 78.212 148.662 75.3908 145.093 75.3908C141.523 75.3908 138.631 78.212 138.631 81.6919V85.4465C137.917 85.5818 137.196 85.7296 136.461 85.9077C127.154 88.1593 120.203 95.1073 118.749 103.61C117.509 110.862 120.552 117.769 126.69 121.636C132.063 125.02 139.599 127.919 152.705 131.639C159.507 133.57 163.006 137.478 162.306 142.362C161.239 149.809 152.622 153.87 145.057 153.91C136.332 153.958 132.873 153.646 125.482 149.763C122.339 148.11 118.421 149.257 116.729 152.321C115.038 155.384 116.213 159.206 119.354 160.856V160.856Z" fill="black"/>
<path d="M474.938 269.315C474.398 266.299 471.713 264.097 468.572 264.097H308.185C305.045 264.097 302.36 266.299 301.819 269.315C292.404 321.924 292.404 375.274 301.819 427.884C302.36 430.9 305.045 433.101 308.185 433.101H468.572C471.713 433.101 474.398 430.9 474.938 427.884C484.354 375.274 484.354 321.924 474.938 269.315V269.315ZM407.826 276.7V337.178L391.826 327.342C390.772 326.695 389.576 326.371 388.38 326.371C387.183 326.371 385.987 326.695 384.933 327.342L368.933 337.178V276.7H407.826ZM463.109 420.499H313.649C305.694 372.763 305.694 324.436 313.649 276.699H356.009V348.599C356.009 350.893 357.288 353.007 359.349 354.116C361.409 355.223 363.925 355.153 365.917 353.93L388.379 340.12L410.841 353.93C411.892 354.576 413.088 354.9 414.287 354.9C415.361 354.9 416.435 354.639 417.409 354.116C419.469 353.007 420.749 350.894 420.749 348.599V276.699H463.108C471.065 324.436 471.065 372.763 463.109 420.499Z" fill="black"/>
</svg>
