<svg width="1440" height="435" viewBox="0 0 1440 435" fill="none" xmlns="http://www.w3.org/2000/svg">
<rect width="1440" height="435" fill="#C2C2C2"/>
<g clip-path="url(#clip0)">
<rect x="404" y="129" width="632" height="143" rx="8" fill="black"/>
<path d="M541.192 195.728C541.192 201.936 543.752 207.568 547.592 211.664C551.496 215.76 557 218.32 563.08 218.32C573.512 218.32 581.704 211.408 584.264 201.232H577.928C575.624 208.016 569.864 211.92 563.08 211.92C558.792 211.92 554.888 210.064 552.072 207.12C549.256 204.176 547.464 200.208 547.464 195.728C547.464 191.12 549.256 187.152 552.072 184.208C554.888 181.264 558.792 179.408 563.08 179.408C569.672 179.408 575.176 182.8 577.544 189.52H583.944C581.384 179.408 573.32 173.008 563.08 173.008C557 173.008 551.496 175.632 547.592 179.664C543.752 183.76 541.192 189.392 541.192 195.728ZM625.414 195.6C625.414 200.208 623.558 204.24 620.678 207.184C617.67 210.192 613.51 212.048 609.094 212.048C604.678 212.048 600.582 210.192 597.638 207.184C594.694 204.24 592.838 200.144 592.838 195.6C592.838 191.056 594.694 186.96 597.638 184.016C600.582 181.008 604.678 179.152 609.094 179.152C613.51 179.152 617.67 181.008 620.678 184.016C623.558 186.96 625.414 190.992 625.414 195.6ZM586.309 195.6C586.309 201.936 588.934 207.632 592.966 211.792C597.062 216.016 602.822 218.576 609.094 218.576C615.43 218.576 621.126 216.016 625.286 211.792C629.318 207.632 631.942 201.936 631.942 195.6C631.942 189.264 629.318 183.568 625.286 179.408C621.126 175.248 615.43 172.624 609.094 172.624C602.822 172.624 597.062 175.248 592.966 179.408C588.934 183.568 586.309 189.264 586.309 195.6ZM642.426 218V186.704L664.058 218H669.178V173.2H662.778V204.752L640.954 173.2L635.962 173.136V218H642.426ZM691.315 218.192V179.728H704.819V173.2H671.282V179.728H684.851V218.192H691.315ZM719.102 182.928L724.606 198.736H713.47L719.102 182.928ZM732.478 218H739.39L721.406 172.624H716.67L698.685 218H705.661C707.07 214.288 709.31 208.912 711.038 204.816H727.102L732.478 218ZM738.63 195.728C738.63 201.936 741.19 207.568 745.03 211.664C748.934 215.76 754.438 218.32 760.518 218.32C770.95 218.32 779.142 211.408 781.702 201.232H775.366C773.062 208.016 767.302 211.92 760.518 211.92C756.23 211.92 752.326 210.064 749.51 207.12C746.694 204.176 744.902 200.208 744.902 195.728C744.902 191.12 746.694 187.152 749.51 184.208C752.326 181.264 756.23 179.408 760.518 179.408C767.11 179.408 772.614 182.8 774.982 189.52H781.382C778.822 179.408 770.757 173.008 760.518 173.008C754.438 173.008 748.934 175.632 745.03 179.664C741.19 183.76 738.63 189.392 738.63 195.728ZM800.627 218.192V179.728H814.131V173.2H780.595V179.728H794.163V218.192H800.627ZM856.291 218.448C863.971 218.448 872.803 213.712 872.803 204.624V173.264H866.275V204.56C866.275 209.488 860.963 211.984 856.291 211.984C851.555 211.984 846.243 209.552 846.243 204.624V173.264H839.715V204.56C839.715 213.712 848.419 218.448 856.291 218.448ZM908.122 184.528C906.97 176.336 899.802 172.752 892.89 172.752C887.706 172.752 882.33 174.8 879.322 178.704C877.402 181.2 876.634 184.208 876.89 187.216V187.152C877.594 196.496 885.786 198.032 892.762 198.736C897.242 199.184 901.85 199.76 902.618 203.152C902.746 203.728 902.81 204.24 902.81 204.688C902.81 209.296 897.562 211.984 892.762 211.984C888.602 211.984 883.546 209.808 883.098 205.648V205.904L883.034 204.944L876.506 205.072L876.57 206.288C877.402 214.288 885.786 218.384 892.698 218.384C900.762 218.384 909.338 213.392 909.338 204.752C909.338 203.856 909.21 202.768 909.018 201.808C907.29 194.64 899.674 193.04 893.53 192.272C888.73 191.824 883.674 191.248 883.354 186.64C883.226 185.104 883.546 183.632 884.442 182.48C886.234 180.176 889.562 179.152 892.57 179.088C896.474 179.024 900.826 180.752 901.722 184.784L908.122 184.528Z" fill="white"/>
<path d="M973.75 167.305C975.846 167.305 977.861 167.555 979.793 168.054C981.725 168.554 983.539 169.278 985.234 170.225C986.93 171.173 988.461 172.293 989.828 173.585C991.195 174.878 992.38 176.325 993.383 177.927C994.385 179.53 995.151 181.244 995.68 183.071C996.208 184.897 996.482 186.81 996.5 188.808C996.5 190.79 996.236 192.694 995.707 194.52C995.178 196.346 994.413 198.061 993.41 199.663C992.408 201.266 991.223 202.713 989.855 204.005C988.488 205.298 986.957 206.418 985.262 207.365C983.566 208.313 981.753 209.037 979.82 209.536C977.888 210.036 975.865 210.294 973.75 210.312C971.654 210.312 969.639 210.062 967.707 209.562C965.775 209.062 963.961 208.339 962.266 207.391C960.57 206.443 959.039 205.323 957.672 204.031C956.305 202.739 955.12 201.292 954.117 199.689C953.115 198.087 952.349 196.372 951.82 194.546C951.292 192.72 951.018 190.807 951 188.808C951 186.827 951.264 184.923 951.793 183.096C952.322 181.27 953.087 179.556 954.09 177.953C955.092 176.351 956.277 174.903 957.645 173.611C959.012 172.319 960.543 171.199 962.238 170.251C963.934 169.304 965.747 168.58 967.68 168.08C969.612 167.58 971.635 167.322 973.75 167.305Z" fill="#008080"/>
<path d="M978.344 191.356L981.25 200.151L973.75 194.701L966.25 200.151L969.156 191.356L961.75 185.973H970.938L973.75 177.466L976.562 185.973H985.75L978.344 191.356Z" fill="white"/>
<path d="M465 172.25C467.096 172.25 469.111 172.514 471.043 173.043C472.975 173.572 474.789 174.337 476.484 175.34C478.18 176.342 479.711 177.527 481.078 178.895C482.445 180.262 483.63 181.793 484.633 183.488C485.635 185.184 486.401 186.997 486.93 188.93C487.458 190.862 487.732 192.885 487.75 195C487.75 197.096 487.486 199.111 486.957 201.043C486.428 202.975 485.663 204.789 484.66 206.484C483.658 208.18 482.473 209.711 481.105 211.078C479.738 212.445 478.207 213.63 476.512 214.633C474.816 215.635 473.003 216.401 471.07 216.93C469.138 217.458 467.115 217.732 465 217.75C462.904 217.75 460.889 217.486 458.957 216.957C457.025 216.428 455.211 215.663 453.516 214.66C451.82 213.658 450.289 212.473 448.922 211.105C447.555 209.738 446.37 208.207 445.367 206.512C444.365 204.816 443.599 203.003 443.07 201.07C442.542 199.138 442.268 197.115 442.25 195C442.25 192.904 442.514 190.889 443.043 188.957C443.572 187.025 444.337 185.211 445.34 183.516C446.342 181.82 447.527 180.289 448.895 178.922C450.262 177.555 451.793 176.37 453.488 175.367C455.184 174.365 456.997 173.599 458.93 173.07C460.862 172.542 462.885 172.268 465 172.25Z" fill="#008080"/>
<path d="M469.594 197.695L472.5 207L465 201.234L457.5 207L460.406 197.695L453 192H462.188L465 183L467.812 192H477L469.594 197.695Z" fill="white"/>
</g>
<defs>
<clipPath id="clip0">
<rect width="1152" height="207" fill="white" transform="translate(144 82)"/>
</clipPath>
</defs>
</svg>
