<svg width="600" height="450" viewBox="0 0 600 450" fill="none" xmlns="http://www.w3.org/2000/svg">
<path d="M438.063 69.5128L431.955 63.646L426.033 69.1572L420.296 63.646L414.189 69.5128L419.926 75.024L414.189 80.7131L420.296 86.5798L426.033 80.8908L431.955 86.5798L438.063 80.7131L432.141 75.024L438.063 69.5128Z" fill="#008080"/>
<path d="M63.6644 281.429L57.557 275.562L51.6348 281.073L45.8976 275.562L39.7902 281.429L45.5274 286.94L39.7902 292.629L45.8976 298.496L51.6348 292.807L57.557 298.496L63.6644 292.629L57.7421 286.94L63.6644 281.429Z" fill="#008080"/>
<path d="M175.077 30.4007L168.97 24.5339L163.047 30.2229L157.31 24.5339L151.203 30.4007L156.94 36.0897L151.203 41.7787L157.31 47.6455L163.047 41.9565L168.97 47.6455L175.077 41.7787L169.34 36.0897L175.077 30.4007Z" fill="#008080"/>
<path d="M560.21 324.63L554.102 318.585L548.18 324.274L542.443 318.585L536.336 324.63L542.073 330.141L536.336 335.83L542.443 341.697L548.18 336.008L554.102 341.697L560.21 335.83L554.473 330.141L560.21 324.63Z" fill="#008080"/>
<path d="M63.6645 95.1134C58.6676 95.1134 54.7811 91.2022 54.7811 86.5798C54.7811 81.7797 58.8526 78.0463 63.6645 78.0463C68.6614 78.0463 72.5479 81.9575 72.5479 86.5798C72.5479 91.38 68.6614 95.1134 63.6645 95.1134ZM63.6645 81.602C60.7033 81.602 58.4825 83.9131 58.4825 86.5798C58.4825 89.2466 60.8884 91.5577 63.6645 91.5577C66.4405 91.5577 68.8465 89.2466 68.8465 86.5798C68.8465 83.9131 66.6256 81.602 63.6645 81.602Z" fill="#008080"/>
<path d="M323.504 17.0671C318.507 17.0671 314.62 13.1559 314.62 8.53354C314.62 3.91121 318.692 0 323.504 0C328.501 0 332.387 3.91121 332.387 8.53354C332.387 13.1559 328.501 17.0671 323.504 17.0671ZM323.504 3.55564C320.543 3.55564 318.322 5.86681 318.322 8.53354C318.322 11.2003 320.728 13.5114 323.504 13.5114C326.28 13.5114 328.686 11.2003 328.686 8.53354C328.686 5.86681 326.465 3.55564 323.504 3.55564Z" fill="#008080"/>
<path d="M574.275 137.426C569.278 137.426 565.392 133.514 565.392 128.892C565.392 124.092 569.463 120.358 574.275 120.358C579.272 120.358 583.159 124.27 583.159 128.892C583.344 133.692 579.272 137.426 574.275 137.426ZM574.275 123.914C571.314 123.914 569.093 126.225 569.093 128.892C569.093 131.559 571.499 133.87 574.275 133.87C577.051 133.87 579.457 131.559 579.457 128.892C579.457 126.225 577.236 123.914 574.275 123.914Z" fill="#008080"/>
<path d="M460.271 279.295C455.275 279.295 451.388 275.384 451.388 270.762C451.388 265.962 455.46 262.228 460.271 262.228C465.268 262.228 469.155 266.14 469.155 270.762C469.155 275.562 465.083 279.295 460.271 279.295ZM460.271 265.784C457.31 265.784 455.09 268.095 455.09 270.762C455.09 273.429 457.495 275.74 460.271 275.74C463.048 275.74 465.453 273.429 465.453 270.762C465.453 268.095 463.048 265.784 460.271 265.784Z" fill="#008080"/>
<path d="M151.203 388.098C146.206 388.098 142.32 384.187 142.32 379.565C142.32 374.765 146.391 371.031 151.203 371.031C156.2 371.031 160.086 374.942 160.086 379.565C160.086 384.187 156.015 388.098 151.203 388.098ZM151.203 374.409C148.242 374.409 146.021 376.72 146.021 379.387C146.021 382.054 148.427 384.365 151.203 384.365C153.979 384.365 156.385 382.054 156.385 379.387C156.385 376.72 153.979 374.409 151.203 374.409Z" fill="#008080"/>
<path d="M167.674 107.736C176.873 107.736 184.331 100.572 184.331 91.7355C184.331 82.8988 176.873 75.7351 167.674 75.7351C158.475 75.7351 151.018 82.8988 151.018 91.7355C151.018 100.572 158.475 107.736 167.674 107.736Z" fill="#008080"/>
<path d="M175.817 283.74C180.417 283.74 184.146 280.158 184.146 275.74C184.146 271.321 180.417 267.74 175.817 267.74C171.218 267.74 167.489 271.321 167.489 275.74C167.489 280.158 171.218 283.74 175.817 283.74Z" fill="#008080"/>
<path d="M591.672 257.784C596.271 257.784 600 254.202 600 249.784C600 245.365 596.271 241.784 591.672 241.784C587.072 241.784 583.344 245.365 583.344 249.784C583.344 254.202 587.072 257.784 591.672 257.784Z" fill="#008080"/>
<path d="M8.32819 154.848C12.9277 154.848 16.6564 151.266 16.6564 146.848C16.6564 142.43 12.9277 138.848 8.32819 138.848C3.72866 138.848 0 142.43 0 146.848C0 151.266 3.72866 154.848 8.32819 154.848Z" fill="#008080"/>
<path d="M426.033 154.848C430.633 154.848 434.361 151.266 434.361 146.848C434.361 142.43 430.633 138.848 426.033 138.848C421.434 138.848 417.705 142.43 417.705 146.848C417.705 151.266 421.434 154.848 426.033 154.848Z" fill="#008080"/>
<path d="M408.637 382.942C415.587 382.942 421.222 377.53 421.222 370.853C421.222 364.177 415.587 358.764 408.637 358.764C401.686 358.764 396.052 364.177 396.052 370.853C396.052 377.53 401.686 382.942 408.637 382.942Z" fill="#008080"/>
<path d="M93.0906 271.473V233.961H16.6563V204.094L104.38 96.0023H128.254V203.916H151.203V234.139H128.254V271.651H93.0906V271.473ZM51.6347 203.738H96.9771V146.848L51.6347 203.738Z" fill="#BDBDBD"/>
<path d="M501.542 271.473V233.961H425.108V204.094L512.832 96.0023H536.706V203.916H559.654V234.139H536.706V271.651H501.542V271.473ZM460.271 203.738H505.614V146.848L460.271 203.738Z" fill="#BDBDBD"/>
<path opacity="0.15" d="M426.218 283.207L426.959 282.673C428.069 281.785 428.069 280.184 427.144 279.296L413.078 264.54C427.514 247.117 436.582 225.25 437.693 201.249C440.469 140.626 391.61 89.4244 328.686 86.7577C265.577 84.0909 212.276 131.025 209.5 191.471C206.724 252.095 255.583 303.296 318.507 305.963C343.492 307.03 366.996 300.274 386.428 288.007L400.494 302.763C401.419 303.83 403.085 303.83 404.01 302.941L404.75 302.407L508.76 411.565H548.365L426.218 283.207Z" fill="#212121"/>
<path d="M560.95 424.721L391.425 261.873L369.587 282.851L539.111 445.699C545.404 451.744 555.953 451.389 561.69 444.811C566.872 438.766 566.502 430.055 560.95 424.721Z" fill="#424242"/>
<path d="M353.856 272.718L374.398 292.451C375.509 293.518 377.174 293.518 378.1 292.451L401.234 270.229C402.344 269.162 402.344 267.562 401.234 266.673L380.691 246.939L353.856 272.718Z" fill="#E0E0E0"/>
<path d="M384.022 249.784L386.613 252.45L364.775 283.207L355.151 273.962L384.022 249.784Z" fill="#BDBDBD"/>
<path opacity="0.64" d="M378.84 291.74L400.679 270.762L402.159 272.184L385.133 297.607L378.84 291.74Z" fill="#212121"/>
<path d="M288.155 67.9128C221.53 67.9128 167.674 119.825 167.674 183.649C167.674 247.473 221.715 299.385 288.155 299.385C354.596 299.385 408.637 247.473 408.637 183.649C408.637 119.825 354.781 67.9128 288.155 67.9128ZM288.155 275.562C235.41 275.562 192.474 234.495 192.474 183.649C192.474 132.981 235.225 91.7356 288.155 91.7356C340.901 91.7356 383.837 132.803 383.837 183.649C383.837 234.317 340.901 275.562 288.155 275.562Z" fill="white"/>
<path opacity="0.8" d="M288.155 275.562C340.999 275.562 383.837 234.411 383.837 183.649C383.837 132.887 340.999 91.7355 288.155 91.7355C235.312 91.7355 192.474 132.887 192.474 183.649C192.474 234.411 235.312 275.562 288.155 275.562Z" fill="#008080"/>
<path d="M256.172 104.938C252.63 101.536 238.569 109.528 224.764 122.789C210.96 136.05 202.64 149.557 206.182 152.959C209.723 156.361 223.785 148.369 237.589 135.109C251.393 121.848 259.713 108.34 256.172 104.938Z" fill="white"/>
</svg>
