<svg width="304" height="84" viewBox="0 0 304 84" fill="none" xmlns="http://www.w3.org/2000/svg">
<rect y="3.05176e-05" width="304" height="84" fill="white"/>
<path d="M80.1211 74.6V59.3071H77.291V55.5805H80.1211V53.9633C80.1211 51.8305 80.7305 50.1782 81.9492 49.0063C83.1797 47.8227 84.8965 47.2309 87.0996 47.2309C87.8027 47.2309 88.6641 47.3481 89.6836 47.5825L89.6309 51.52C89.209 51.4145 88.6934 51.3618 88.084 51.3618C86.1738 51.3618 85.2188 52.2582 85.2188 54.0512V55.5805H88.998V59.3071H85.2188V74.6H80.1211ZM90.8438 64.9145C90.8438 63.0278 91.207 61.3461 91.9336 59.8696C92.6602 58.393 93.7031 57.2504 95.0625 56.4418C96.4336 55.6332 98.0215 55.2289 99.8262 55.2289C102.393 55.2289 104.484 56.0141 106.102 57.5844C107.73 59.1547 108.639 61.2875 108.826 63.9828L108.861 65.2836C108.861 68.2016 108.047 70.5453 106.418 72.3149C104.789 74.0727 102.604 74.9516 99.8613 74.9516C97.1191 74.9516 94.9277 74.0727 93.2871 72.3149C91.6582 70.5571 90.8438 68.1664 90.8438 65.143V64.9145ZM95.9238 65.2836C95.9238 67.0883 96.2637 68.4711 96.9434 69.4321C97.623 70.3813 98.5957 70.8559 99.8613 70.8559C101.092 70.8559 102.053 70.3871 102.744 69.4496C103.436 68.5004 103.781 66.9887 103.781 64.9145C103.781 63.145 103.436 61.7739 102.744 60.8012C102.053 59.8286 101.08 59.3422 99.8262 59.3422C98.584 59.3422 97.623 59.8286 96.9434 60.8012C96.2637 61.7621 95.9238 63.2563 95.9238 65.2836ZM111.199 64.9145C111.199 63.0278 111.562 61.3461 112.289 59.8696C113.016 58.393 114.059 57.2504 115.418 56.4418C116.789 55.6332 118.377 55.2289 120.182 55.2289C122.748 55.2289 124.84 56.0141 126.457 57.5844C128.086 59.1547 128.994 61.2875 129.182 63.9828L129.217 65.2836C129.217 68.2016 128.402 70.5453 126.773 72.3149C125.145 74.0727 122.959 74.9516 120.217 74.9516C117.475 74.9516 115.283 74.0727 113.643 72.3149C112.014 70.5571 111.199 68.1664 111.199 65.143V64.9145ZM116.279 65.2836C116.279 67.0883 116.619 68.4711 117.299 69.4321C117.979 70.3813 118.951 70.8559 120.217 70.8559C121.447 70.8559 122.408 70.3871 123.1 69.4496C123.791 68.5004 124.137 66.9887 124.137 64.9145C124.137 63.145 123.791 61.7739 123.1 60.8012C122.408 59.8286 121.436 59.3422 120.182 59.3422C118.939 59.3422 117.979 59.8286 117.299 60.8012C116.619 61.7621 116.279 63.2563 116.279 65.2836ZM131.555 64.9496C131.555 61.9848 132.217 59.6235 133.541 57.8657C134.877 56.1078 136.699 55.2289 139.008 55.2289C140.859 55.2289 142.389 55.9203 143.596 57.3032V47.6H148.693V74.6H144.105L143.859 72.5786C142.594 74.1606 140.965 74.9516 138.973 74.9516C136.734 74.9516 134.936 74.0727 133.576 72.3149C132.229 70.5453 131.555 68.0903 131.555 64.9496ZM136.635 65.3188C136.635 67.1 136.945 68.4653 137.566 69.4145C138.188 70.3637 139.09 70.8383 140.273 70.8383C141.844 70.8383 142.951 70.1762 143.596 68.852V61.3461C142.963 60.0219 141.867 59.3598 140.309 59.3598C137.859 59.3598 136.635 61.3461 136.635 65.3188ZM173.057 66.0746C172.857 68.8286 171.838 70.9965 169.998 72.5786C168.17 74.1606 165.756 74.9516 162.756 74.9516C159.475 74.9516 156.891 73.85 155.004 71.6469C153.129 69.4321 152.191 66.3969 152.191 62.5414V60.977C152.191 58.5161 152.625 56.3481 153.492 54.4731C154.359 52.5981 155.596 51.1625 157.201 50.1664C158.818 49.1586 160.693 48.6547 162.826 48.6547C165.779 48.6547 168.158 49.4457 169.963 51.0278C171.768 52.6098 172.811 54.8305 173.092 57.6899H167.818C167.689 56.0375 167.227 54.8422 166.43 54.1039C165.645 53.3539 164.443 52.9789 162.826 52.9789C161.068 52.9789 159.75 53.6118 158.871 54.8774C158.004 56.1313 157.559 58.0825 157.535 60.7309V62.6645C157.535 65.4301 157.951 67.4516 158.783 68.7289C159.627 70.0063 160.951 70.645 162.756 70.645C164.385 70.645 165.598 70.2758 166.395 69.5375C167.203 68.7875 167.666 67.6332 167.783 66.0746H173.057ZM186.873 60.3442C186.182 60.2504 185.572 60.2036 185.045 60.2036C183.123 60.2036 181.863 60.8539 181.266 62.1547V74.6H176.186V55.5805H180.984L181.125 57.8481C182.145 56.102 183.557 55.2289 185.361 55.2289C185.924 55.2289 186.451 55.3051 186.943 55.4575L186.873 60.3442ZM187.91 64.9145C187.91 63.0278 188.273 61.3461 189 59.8696C189.727 58.393 190.77 57.2504 192.129 56.4418C193.5 55.6332 195.088 55.2289 196.893 55.2289C199.459 55.2289 201.551 56.0141 203.168 57.5844C204.797 59.1547 205.705 61.2875 205.893 63.9828L205.928 65.2836C205.928 68.2016 205.113 70.5453 203.484 72.3149C201.855 74.0727 199.67 74.9516 196.928 74.9516C194.186 74.9516 191.994 74.0727 190.354 72.3149C188.725 70.5571 187.91 68.1664 187.91 65.143V64.9145ZM192.99 65.2836C192.99 67.0883 193.33 68.4711 194.01 69.4321C194.689 70.3813 195.662 70.8559 196.928 70.8559C198.158 70.8559 199.119 70.3871 199.811 69.4496C200.502 68.5004 200.848 66.9887 200.848 64.9145C200.848 63.145 200.502 61.7739 199.811 60.8012C199.119 59.8286 198.146 59.3422 196.893 59.3422C195.65 59.3422 194.689 59.8286 194.01 60.8012C193.33 61.7621 192.99 63.2563 192.99 65.2836ZM225.598 67.6918L228.094 55.5805H232.998L228.146 74.6H223.893L220.289 62.6293L216.686 74.6H212.449L207.598 55.5805H212.502L214.98 67.6743L218.461 55.5805H222.135L225.598 67.6918ZM234.738 64.9496C234.738 61.9848 235.4 59.6235 236.725 57.8657C238.061 56.1078 239.883 55.2289 242.191 55.2289C244.043 55.2289 245.572 55.9203 246.779 57.3032V47.6H251.877V74.6H247.289L247.043 72.5786C245.777 74.1606 244.148 74.9516 242.156 74.9516C239.918 74.9516 238.119 74.0727 236.76 72.3149C235.412 70.5453 234.738 68.0903 234.738 64.9496ZM239.818 65.3188C239.818 67.1 240.129 68.4653 240.75 69.4145C241.371 70.3637 242.273 70.8383 243.457 70.8383C245.027 70.8383 246.135 70.1762 246.779 68.852V61.3461C246.146 60.0219 245.051 59.3598 243.492 59.3598C241.043 59.3598 239.818 61.3461 239.818 65.3188ZM262.916 67.4106L266.432 55.5805H271.881L264.234 77.5532L263.812 78.5551C262.676 81.0395 260.801 82.2817 258.188 82.2817C257.449 82.2817 256.699 82.1703 255.938 81.9477V78.0981L256.711 78.1157C257.672 78.1157 258.387 77.9692 258.855 77.6762C259.336 77.3832 259.711 76.8969 259.98 76.2172L260.578 74.6528L253.916 55.5805H259.383L262.916 67.4106Z" fill="black"/>
<path d="M29.6597 16.4046C27.8555 14.4852 24.789 14.436 22.8105 16.2946C21.8831 17.1658 21.3198 18.3519 21.2391 19.6036C19.3485 20.6628 18.6308 23.0258 19.6362 24.8814C20.6415 26.7371 22.9892 27.3827 24.8799 26.3235C25.5988 25.9207 26.179 25.306 26.5385 24.5667C27.321 24.4683 28.0735 24.1824 28.7313 23.7336C30.6699 24.5827 32.9787 23.6815 33.8881 21.7207C34.7975 19.76 33.9631 17.4821 32.0245 16.6331C31.2873 16.3102 30.4599 16.2303 29.6597 16.4046Z" fill="#02A437"/>
<path d="M27.6484 25.249C27.2492 25.2473 26.8992 25.0012 26.767 24.6291L25.1621 20.1158C24.9849 19.6173 25.2507 19.0576 25.7559 18.8657C26.261 18.6738 26.8142 18.9225 26.9915 19.421L28.5967 23.9342C28.7741 24.4327 28.5085 24.9924 28.0033 25.1844C27.8895 25.2276 27.7692 25.2496 27.6488 25.249L27.6484 25.249Z" fill="#027E2A"/>
<path d="M29.4784 24.554C29.4488 24.5539 29.4189 24.5523 29.3889 24.5495C28.8577 24.4982 28.4818 24.0255 28.5493 23.4937L28.5493 23.4936C28.7559 21.8888 29.4735 20.3776 30.5958 19.1842C30.9651 18.7866 31.5786 18.7535 31.9662 19.1103C32.3537 19.4671 32.3685 20.0786 31.9992 20.4761C31.9955 20.4801 31.9917 20.4841 31.988 20.4881C31.1569 21.3719 30.6256 22.491 30.4725 23.6794C30.4097 24.1767 29.9788 24.5557 29.4784 24.554V24.554Z" fill="#027E2A"/>
<path d="M25.8185 25.9452C25.5785 25.9444 25.3501 25.8543 25.1778 25.6924C24.3166 24.8891 23.2105 24.3919 22.0236 24.2748C21.4925 24.2235 21.1166 23.7507 21.1839 23.2188C21.2513 22.687 21.7365 22.2974 22.2676 22.3487C23.8701 22.5071 25.3636 23.1781 26.5264 24.2626C26.9112 24.6223 26.9214 25.2343 26.5492 25.6293C26.3584 25.8318 26.0929 25.9466 25.8185 25.9452V25.9452Z" fill="#027E2A"/>
<path d="M38.4015 42.7495L31.0845 45.5296L24.6086 31.5713C23.3909 28.9461 24.567 25.7687 27.2357 24.4745C27.3815 24.4037 27.5304 24.3396 27.6816 24.282C30.4493 23.2305 33.4805 24.5924 34.4519 27.3239C34.505 27.4735 34.5513 27.6255 34.5905 27.7796L38.4015 42.7495Z" fill="#FD9226"/>
<path d="M49.9761 1.11023L53.8511 1.12808L52.913 28.2096L49.0381 28.1917L49.9761 1.11023Z" fill="#026A23"/>
<path d="M51.1277 20.6969C51.0558 20.115 50.9221 19.544 50.7289 18.9937L46.8355 7.86699L43.8958 8.8208L47.6724 19.6121C48.09 20.8052 48.2815 22.0713 48.237 23.3474L48.1181 26.7798L51.1277 20.6969Z" fill="#027226"/>
<path d="M54.8047 37.6195C55.7414 38.9316 55.6791 40.7293 54.6518 42.0323L54.6379 42.0504C53.8245 43.0819 52.5831 43.6854 51.2872 43.6795L49.5919 43.6717C48.296 43.6657 47.0969 43.0509 46.3552 42.0123L46.3425 41.9941C45.4057 40.682 45.468 38.8842 46.4953 37.5812L47.8014 35.9246L48.1182 26.7798L51.1277 20.6969L51.2436 20.4629L56.5228 7.9116L59.3955 8.89219L54.8726 19.6452C54.3725 20.8341 54.0934 22.0981 54.0494 23.3742L53.6138 35.9514L54.8047 37.6195Z" fill="#027E2A"/>
<path d="M54.6518 42.0323L54.6378 42.0504C54.2118 42.5913 53.6608 43.0222 53.0345 43.3042L47.2552 42.916C46.9074 42.666 46.6036 42.3609 46.3552 42.0122L46.3425 41.994C45.4057 40.682 45.468 38.8842 46.4953 37.5812L46.5853 37.4667L47.7678 36.8918L54.0494 23.3741L53.6137 35.9513L54.8046 37.6195C55.7414 38.9315 55.6791 40.7293 54.6518 42.0323Z" fill="#027E2A"/>
<path d="M25.6429 34.2086C25.1079 34.2069 24.6885 33.7723 24.7064 33.2379C24.7198 32.8385 24.9775 32.4809 25.3552 32.3379L27.1845 31.6429C27.6896 31.4509 28.2428 31.6995 28.4202 32.1981C28.5976 32.6968 28.3317 33.2567 27.8264 33.4487L25.9978 34.1438C25.8839 34.1872 25.7635 34.2092 25.6429 34.2086V34.2086Z" fill="#E78244"/>
<path d="M31.131 32.1234C30.596 32.1215 30.1768 31.6868 30.1947 31.1525C30.208 30.7533 30.4657 30.3959 30.8433 30.2527L32.6726 29.5577C33.1778 29.3658 33.731 29.6145 33.9082 30.1131C34.0855 30.6118 33.8196 31.1716 33.3145 31.3636L31.4858 32.0587C31.3719 32.102 31.2517 32.1239 31.131 32.1234V32.1234Z" fill="#E78244"/>
<path d="M27.0784 37.7317C26.5434 37.7299 26.1241 37.2954 26.142 36.761C26.1553 36.3615 26.4131 36.004 26.7908 35.8609L29.383 34.9053C29.8881 34.7134 30.4415 34.962 30.6187 35.4607C30.7959 35.9593 30.5301 36.5193 30.0249 36.7112L27.4326 37.6669C27.319 37.7102 27.1988 37.7321 27.0784 37.7317V37.7317Z" fill="#E78244"/>
<path d="M33.3292 35.3879C32.7942 35.3859 32.3751 34.9512 32.393 34.417C32.4064 34.0178 32.6641 33.6604 33.0416 33.5173L33.9562 33.1697C34.4614 32.9777 35.0146 33.2264 35.1918 33.7252C35.3691 34.2238 35.1032 34.7837 34.5979 34.9757L33.6833 35.3233C33.5697 35.3664 33.4496 35.3883 33.3292 35.3879Z" fill="#E78244"/>
<path d="M39.1884 22.342L41.4876 22.3526C43.0472 22.3598 44.4426 23.2464 45.0916 24.6424L45.8355 26.242L43.5364 26.2314C41.977 26.2242 40.5818 25.338 39.9327 23.9421L39.1884 22.342Z" fill="#02A437"/>
<path d="M43.54 31.7937C43.005 31.7912 42.5863 31.3562 42.6048 30.822C42.7253 27.5517 45.1333 24.7483 48.3663 24.1147L48.4612 24.0963C48.9895 23.994 49.488 24.3361 49.5747 24.8604C49.6614 25.3848 49.3035 25.8927 48.7752 25.995L48.6805 26.0133C46.3583 26.4684 44.6287 28.482 44.5422 30.831C44.5237 31.3651 44.075 31.7962 43.54 31.7937V31.7937Z" fill="#8F6934"/>
<path d="M54.6518 42.0323L54.6378 42.0504C54.2118 42.5913 53.6608 43.0222 53.0345 43.3042L47.2552 42.916C46.9074 42.666 46.6036 42.3609 46.3552 42.0122L46.3425 41.994C45.4057 40.682 45.468 38.8842 46.4953 37.5812L46.5853 37.4667L47.7678 36.8918L54.0494 23.3741L53.6137 35.9513L54.8046 37.6195C55.7414 38.9315 55.6791 40.7293 54.6518 42.0323Z" fill="#CBCBCB"/>
<path d="M40.1718 28.8762C41.1284 28.8806 42.0052 29.362 42.5083 30.1591C42.8882 30.761 43.6945 30.9269 44.3093 30.5296C44.4562 30.4346 44.5838 30.3121 44.6845 30.1692C45.2427 29.3769 46.1525 28.9037 47.109 28.9081C47.9781 28.9121 48.7864 29.3103 49.3059 29.9904L49.5236 30.2754C51.1218 32.3677 51.1904 35.2792 49.6949 37.5366L47.7 40.5475C47.3142 41.1299 46.6608 41.4816 45.971 41.4785C45.4404 41.476 44.9389 41.2632 44.5767 40.8869C43.8561 40.1383 42.6459 40.1327 41.8737 40.8745C41.4856 41.2473 40.9694 41.4554 40.4388 41.453C39.7491 41.4498 39.1202 41.0921 38.7749 40.5064L36.9892 37.4781C35.6505 35.2076 35.9207 32.2977 37.6634 30.2207L37.9006 29.9379C38.4671 29.2629 39.3027 28.8722 40.1718 28.8762V28.8762Z" fill="#E82F3E"/>
<path d="M40.5749 36.8586C40.3179 36.8578 40.0749 36.7546 39.8997 36.5722C39.0551 35.6967 38.8844 34.3627 39.4763 33.2623L39.857 32.5529C40.1165 32.0782 40.7065 31.8918 41.1747 32.1366C41.6378 32.3788 41.8093 32.9528 41.5599 33.4261L41.1792 34.1354C40.987 34.4928 41.0424 34.926 41.3166 35.2103C41.6821 35.5895 41.6612 36.202 41.27 36.5782C41.0821 36.7589 40.832 36.8598 40.5749 36.8586V36.8586Z" fill="#FF6268"/>
<path d="M18.4043 45.4627L74.5908 45.7215L74.3898 51.5247L18.2033 51.2659L18.4043 45.4627Z" fill="#EA9D2D"/>
<path d="M24.0826 49.3588L22.1451 49.3499C21.6101 49.3474 21.1914 48.9122 21.2099 48.3779C21.2284 47.8437 21.6772 47.4125 22.2121 47.415L24.1496 47.4239C24.6846 47.4263 25.1033 47.8615 25.0848 48.3958C25.0663 48.9301 24.6176 49.3612 24.0826 49.3588Z" fill="#C38325"/>
<path d="M70.5818 49.573L68.6443 49.564C68.1093 49.5616 67.6906 49.1264 67.7091 48.5921C67.7276 48.0578 68.1764 47.6267 68.7113 47.6291L70.6488 47.6381C71.1838 47.6405 71.6025 48.0757 71.584 48.61C71.5655 49.1442 71.1168 49.5754 70.5818 49.573Z" fill="#C38325"/>
<path d="M18.2032 51.2659L74.3898 51.5247L74.1888 57.3279L18.0022 57.0691L18.2032 51.2659Z" fill="#FBB540"/>
<path d="M23.8817 55.162L21.9442 55.153C21.4092 55.1506 20.9905 54.7154 21.009 54.1811C21.0275 53.6469 21.4762 53.2157 22.0112 53.2181L23.9487 53.2271C24.4837 53.2295 24.9024 53.6647 24.8839 54.199C24.8654 54.7333 24.4166 55.1644 23.8817 55.162Z" fill="#C38325"/>
<path d="M47.3322 49.4659L45.3948 49.4569C44.8598 49.4545 44.441 49.0193 44.4595 48.485C44.478 47.9508 44.9268 47.5196 45.4618 47.522L47.3992 47.531C47.9342 47.5334 48.353 47.9686 48.3345 48.5029C48.316 49.0372 47.8672 49.4683 47.3322 49.4659Z" fill="#C38325"/>
<path d="M47.1312 55.2691L45.1938 55.2601C44.6588 55.2577 44.24 54.8225 44.2585 54.2882C44.277 53.7539 44.7258 53.3228 45.2608 53.3252L47.1983 53.3342C47.7332 53.3366 48.152 53.7718 48.1335 54.3061C48.115 54.8403 47.6662 55.2715 47.1312 55.2691Z" fill="#C38325"/>
<path d="M70.3808 55.3762L68.4433 55.3672C67.9084 55.3648 67.4896 54.9296 67.5081 54.3953C67.5266 53.8611 67.9754 53.4299 68.5104 53.4323L70.4478 53.4413C70.9828 53.4437 71.4016 53.8789 71.383 54.4132C71.3645 54.9475 70.9158 55.3786 70.3808 55.3762Z" fill="#C38325"/>
<path d="M58.5244 34.0393L59.3461 34.893C60.6164 36.2128 61.2939 37.998 61.2295 39.8558L64.1357 39.8692L64.1692 38.902C64.2336 37.0442 63.5561 35.2589 62.2858 33.9392L61.4641 33.0855L58.5244 34.0393Z" fill="#027E2A"/>
<path d="M70.1492 34.0928L69.2686 34.9387C67.9073 36.2464 67.1063 38.0248 67.042 39.8826L64.1358 39.8693L64.1693 38.9021C64.2336 37.0442 65.0346 35.2658 66.3959 33.9581L67.2765 33.1123L70.1492 34.0928Z" fill="#027E2A"/>
<path d="M75.2524 26.6194C75.2907 25.5417 74.846 24.5174 74.0394 23.8252C74.5712 21.8795 73.4338 19.919 71.499 19.4464C71.3034 19.3985 71.1036 19.3674 70.9019 19.353C69.0217 15.8721 64.6226 14.6563 61.0761 16.6375C59.9421 17.271 58.9876 18.1879 58.3096 19.295C56.3039 19.4182 54.7294 21.138 54.7928 23.1365C54.7992 23.3387 54.8225 23.5395 54.8627 23.7368C53.2842 25.0032 52.9878 27.273 54.1989 28.8199C52.8477 31.1648 53.6255 34.1022 55.9361 35.3808C57.5937 36.298 59.6671 36.1356 61.2231 34.9667C62.2585 34.837 63.2506 34.443 64.1029 33.8232C64.912 34.4508 65.8765 34.8538 66.9025 34.9931C68.9577 36.6421 72.0139 36.2758 73.7288 34.1747C74.9593 32.6674 75.2031 30.6034 74.3503 28.9127C74.9055 28.268 75.2245 27.4572 75.2524 26.6194Z" fill="#4CAF50"/>
<path d="M67.2374 22.4712C66.8268 22.4693 66.4697 22.2091 66.3463 21.8219C66.0239 20.8125 64.9343 20.2798 63.9128 20.632C63.3547 20.8243 62.9058 21.2554 62.6915 21.805C62.4958 22.3079 61.9332 22.5693 61.4349 22.389C60.9366 22.2087 60.6914 21.6548 60.8871 21.152C61.6708 19.1404 63.9223 18.095 65.9158 18.8172C67.0056 19.212 67.8433 20.0825 68.1955 21.1857C68.3564 21.69 68.073 22.2416 67.5625 22.4173C67.4575 22.4535 67.3475 22.4717 67.2374 22.4712V22.4712Z" fill="#027E2A"/>
<path d="M59.4185 29.2066C57.8134 29.1993 56.5573 27.8942 56.6128 26.2917C56.6683 24.6891 58.0144 23.3961 59.6195 23.4035C60.1545 23.4059 60.5732 23.841 60.5547 24.3751C60.5362 24.9093 60.0875 25.3403 59.5525 25.3379C59.0175 25.3354 58.5688 25.7665 58.5503 26.3006C58.5318 26.8347 58.9505 27.2698 59.4855 27.2723C60.0205 27.2747 60.4392 27.7098 60.4207 28.2439C60.4022 28.778 59.9535 29.2091 59.4185 29.2066Z" fill="#027E2A"/>
<path d="M18.6052 39.6595L74.7917 39.9183L74.5907 45.7215L18.4042 45.4627L18.6052 39.6595Z" fill="#FBB540"/>
<path d="M24.2837 43.5556L22.3462 43.5467C21.8112 43.5442 21.3925 43.109 21.411 42.5747C21.4295 42.0405 21.8783 41.6093 22.4133 41.6118L24.3507 41.6207C24.8857 41.6232 25.3044 42.0583 25.2859 42.5926C25.2674 43.1269 24.8187 43.5581 24.2837 43.5556Z" fill="#C38325"/>
<path d="M70.7828 43.7698L68.8454 43.7609C68.3104 43.7584 67.8916 43.3232 67.9102 42.789C67.9287 42.2547 68.3774 41.8235 68.9124 41.826L70.8499 41.8349C71.3848 41.8374 71.8036 42.2725 71.7851 42.8068C71.7666 43.3411 71.3178 43.7723 70.7828 43.7698Z" fill="#C38325"/>
<path d="M47.5333 43.6627L45.5958 43.6538C45.0608 43.6513 44.6421 43.2162 44.6606 42.6819C44.6791 42.1476 45.1278 41.7164 45.6628 41.7189L47.6003 41.7278C48.1353 41.7303 48.554 42.1655 48.5355 42.6997C48.517 43.234 48.0683 43.6652 47.5333 43.6627Z" fill="#C38325"/>
<path d="M22.1451 49.3499L24.0826 49.3588C24.6176 49.3612 25.0663 48.9301 25.0848 48.3958C25.1033 47.8615 24.6846 47.4263 24.1496 47.4239L22.2121 47.415C21.6772 47.4125 21.2284 47.8437 21.2099 48.3779C21.1914 48.9122 21.6101 49.3474 22.1451 49.3499Z" fill="black"/>
<path d="M68.6443 49.564L70.5818 49.573C71.1168 49.5754 71.5655 49.1442 71.584 48.61C71.6025 48.0757 71.1838 47.6405 70.6488 47.6381L68.7113 47.6291C68.1764 47.6267 67.7276 48.0578 67.7091 48.5921C67.6906 49.1264 68.1093 49.5616 68.6443 49.564Z" fill="black"/>
<path d="M21.9442 55.153L23.8817 55.162C24.4166 55.1644 24.8654 54.7333 24.8839 54.199C24.9024 53.6647 24.4837 53.2295 23.9487 53.2271L22.0112 53.2181C21.4762 53.2157 21.0275 53.6469 21.009 54.1811C20.9905 54.7154 21.4092 55.1506 21.9442 55.153Z" fill="black"/>
<path d="M45.3948 49.4569L47.3322 49.4659C47.8672 49.4683 48.316 49.0372 48.3345 48.5029C48.353 47.9686 47.9342 47.5334 47.3992 47.531L45.4618 47.522C44.9268 47.5196 44.478 47.9508 44.4595 48.485C44.441 49.0193 44.8598 49.4545 45.3948 49.4569Z" fill="black"/>
<path d="M45.1938 55.2601L47.1312 55.2691C47.6662 55.2715 48.115 54.8403 48.1335 54.3061C48.152 53.7718 47.7332 53.3366 47.1983 53.3342L45.2608 53.3252C44.7258 53.3228 44.277 53.7539 44.2585 54.2882C44.24 54.8225 44.6588 55.2577 45.1938 55.2601Z" fill="black"/>
<path d="M68.4433 55.3672L70.3808 55.3762C70.9158 55.3786 71.3645 54.9475 71.383 54.4132C71.4016 53.8789 70.9828 53.4437 70.4478 53.4413L68.5104 53.4323C67.9754 53.4299 67.5266 53.8611 67.5081 54.3953C67.4896 54.9296 67.9084 55.3648 68.4433 55.3672Z" fill="black"/>
<path d="M33.908 30.1132C33.7307 29.6145 33.1776 29.3658 32.6724 29.5578L30.843 30.2528C30.3379 30.4447 30.072 31.0047 30.2493 31.5033C30.4265 32.002 30.9798 32.2507 31.485 32.0587L33.3142 31.3636C33.8193 31.1717 34.0852 30.6119 33.908 30.1132Z" fill="black"/>
<path d="M75.0921 23.4835C75.435 21.0897 73.8723 18.8938 71.5128 18.4539C69.1456 14.6506 64.0779 13.5757 60.1936 16.0528C59.2363 16.6634 58.4082 17.4589 57.76 18.3906C57.2118 18.4867 56.6827 18.6813 56.1987 18.9646L60.2876 9.24358C60.4969 8.74588 60.2673 8.18509 59.7746 7.99104C59.7611 7.98566 59.7473 7.98064 59.7336 7.97598L56.8609 6.99539C56.375 6.82931 55.8328 7.0782 55.6302 7.56022L54.5044 10.2377L54.8198 1.13231C54.8383 0.598173 54.4195 0.163112 53.8845 0.160648L50.0096 0.142798C49.4746 0.140334 49.0259 0.571398 49.0074 1.10553L48.6919 10.2114L47.7516 7.52405C47.5824 7.04032 47.0576 6.78639 46.5604 6.94794L43.6207 7.90175C43.1073 8.06831 42.814 8.61472 42.9656 9.12231C42.9698 9.13624 42.9742 9.15017 42.9791 9.16385L46.7559 19.9551C47.1355 21.037 47.3092 22.1857 47.2683 23.3432L47.2305 24.436C46.9036 24.558 46.5858 24.704 46.2796 24.8731L45.9729 24.2135C45.1763 22.4846 43.4497 21.3878 41.5211 21.3854L39.2219 21.3748C38.6869 21.3724 38.2382 21.8034 38.2197 22.3376C38.2145 22.4877 38.2444 22.636 38.307 22.7706L39.051 24.3702C39.8476 26.0994 41.5742 27.1963 43.5029 27.1987L43.7643 27.1999C43.3846 27.7771 43.0917 28.4051 42.8954 29.0631C41.4638 27.5512 39.0396 27.5207 37.4808 28.9951C37.3692 29.1006 37.2637 29.2125 37.1651 29.3302L36.9278 29.6131C36.6939 29.8923 36.4805 30.1878 36.2896 30.4973L35.5303 27.5149C35.1711 26.1123 34.3299 24.8928 33.151 24.0657C34.9347 22.77 35.6704 20.4727 34.9503 18.4466C34.2143 16.4104 32.1933 15.1542 30.0079 15.3747C27.639 13.2804 23.9588 13.5506 21.7879 15.9783C21.0122 16.8457 20.5044 17.9152 20.3283 19.052C18.5255 20.3473 17.7726 22.6572 18.4871 24.7013C19.202 26.7318 21.2056 27.9926 23.3785 27.7792C22.9988 29.1983 23.122 30.6903 23.7272 31.9991L26.8496 38.7302L18.6388 38.6923C18.1038 38.6899 17.655 39.1209 17.6365 39.6551L17.0335 57.0646C17.015 57.5988 17.4337 58.0338 17.9687 58.0363L74.1552 58.2951C74.6902 58.2976 75.139 57.8665 75.1575 57.3324L75.7605 39.9228C75.779 39.3887 75.3603 38.9536 74.8253 38.9512L68.7586 38.9232C68.8924 38.2422 69.1421 37.5859 69.4969 36.983C69.5994 36.9888 69.7024 36.9929 69.8061 36.9933C73.017 37.0073 75.7094 34.4198 75.8196 31.214C75.8455 30.4607 75.7243 29.7138 75.4627 29.0153C76.6013 27.2602 76.45 24.9977 75.0921 23.4835ZM64.0592 37.2839C63.9418 36.6002 63.7337 35.9378 63.4403 35.3138C63.6524 35.2154 63.8603 35.1074 64.0626 34.9889C64.2948 35.1323 64.5358 35.2617 64.7843 35.3762C64.463 35.9811 64.2194 36.6223 64.0592 37.2839ZM61.5457 35.9084C62.0327 36.819 62.2692 37.8479 62.2318 38.8931L61.2045 38.8884C61.1298 38.0415 60.9184 37.2162 60.5783 36.4444C60.916 36.2959 61.24 36.1165 61.5457 35.9084ZM58.6389 36.9244C58.9543 37.5327 59.16 38.1942 59.247 38.8794L56.3641 38.8661C56.2471 38.2061 55.9861 37.5838 55.5996 37.0429L54.6139 35.6619C55.6112 36.4841 56.8693 36.9347 58.1816 36.9398C58.3351 36.9405 58.4875 36.9354 58.6389 36.9244ZM50.4986 38.0531C51.7911 36.0981 52.0923 33.6738 51.31 31.5234L52.7645 28.2321C52.8506 28.4676 52.9561 28.695 53.0801 28.9122C52.535 30.1353 52.4203 31.4952 52.7551 32.7661L52.6449 35.9469C52.6377 36.1562 52.6986 36.3601 52.8186 36.5281L54.0096 38.1965C54.1538 38.3989 54.2684 38.6212 54.35 38.857L49.9786 38.8368L50.4986 38.0531ZM57.0527 9.12409L58.1066 9.48384L53.9804 19.2937C53.5264 20.373 53.2393 21.5105 53.1292 22.6665L50.1304 29.4514L50.0832 29.3897C49.7957 29.013 49.438 28.6959 49.0289 28.4548L49.0795 26.9952L57.0527 9.12409ZM50.459 15.1388L50.9113 2.08165L52.8488 2.09058L52.4056 14.8847C52.4026 14.9765 52.4127 15.068 52.4356 15.1563L51.3368 17.7692L50.4509 15.2379C50.4553 15.2051 50.458 15.1719 50.459 15.1388ZM45.143 9.42412L46.2209 9.07419L49.8124 19.3379C49.9517 19.7368 50.0556 20.1482 50.1231 20.5672L49.1985 22.4372C49.1498 21.3528 48.9444 20.2858 48.5884 19.269L45.143 9.42412ZM47.1493 26.7752L47.1089 27.9417C46.4654 27.9441 45.8279 28.1084 45.2557 28.4195C45.7162 27.6494 46.3728 27.0112 47.1563 26.5723L47.1493 26.7752ZM40.8141 23.5136L40.7223 23.3164L41.4541 23.3198C42.648 23.3212 43.7167 24.0003 44.2099 25.0705L44.3016 25.2676L43.5699 25.2643C42.376 25.2629 41.3072 24.5838 40.8141 23.5136ZM38.3988 30.8285L38.6361 30.5456C39.3173 29.734 40.5127 29.6076 41.306 30.2633C41.4536 30.3852 41.5808 30.5298 41.6831 30.6918C42.3442 31.7395 43.748 32.0283 44.8182 31.3368C45.074 31.1714 45.296 30.9582 45.4714 30.7093C45.9745 29.9963 46.8864 29.6973 47.6909 29.9819C47.6969 29.984 47.7028 29.9866 47.7088 29.9885C48.0351 30.1078 48.3188 30.3166 48.5281 30.5913L48.7457 30.8761C50.0959 32.6474 50.154 35.1097 48.8906 37.0204L47.6945 38.8262L38.8995 38.7857L37.8284 36.9694C36.6977 35.0477 36.9262 32.5867 38.3988 30.8285ZM35.204 33.7642C35.2021 33.7576 35.2004 33.7512 35.1983 33.7447L35.2049 33.7524C35.2045 33.7568 35.2044 33.7602 35.204 33.7642ZM20.3163 24.006C19.8478 22.6685 20.4308 21.1601 21.6931 20.4441C21.9903 20.278 22.1845 19.9725 22.2062 19.637C22.3427 17.5009 24.1863 15.8279 26.3237 15.9003C27.3273 15.9342 28.2666 16.3564 28.9439 17.0777C29.1706 17.3187 29.51 17.4215 29.8406 17.349C31.251 17.0497 32.6403 17.8088 33.1212 19.1417C33.6561 20.6305 32.8668 22.3065 31.3581 22.8852C31.1434 22.9675 30.9205 23.0246 30.694 23.0553C30.6604 23.0495 30.627 23.0429 30.5934 23.0373C30.8304 22.0872 31.3113 21.2084 31.988 20.4884C32.3637 20.0968 32.3592 19.4849 31.9779 19.1215C31.5965 18.7582 30.9829 18.781 30.607 19.1726C30.6033 19.1766 30.5995 19.1806 30.5957 19.1846C29.6475 20.1938 28.9849 21.4336 28.6791 22.7708C28.5224 22.7841 28.3701 22.8352 28.2355 22.9199L26.9913 19.421C26.814 18.9225 26.2608 18.6739 25.7557 18.8658C25.2505 19.0576 24.9847 19.6173 25.1619 20.1159L26.4061 23.6147C26.2506 23.6405 26.1026 23.7034 25.9747 23.798C24.9038 22.984 23.6222 22.483 22.2674 22.3487C21.7363 22.2974 21.2511 22.6868 21.1837 23.2186C21.1164 23.7503 21.4923 24.223 22.0234 24.2743C22.9901 24.3698 23.9072 24.7177 24.6831 25.2829C24.6606 25.3096 24.6395 25.3373 24.6175 25.3641C23.2691 26.2652 21.4763 25.9262 20.6133 24.6071C20.4908 24.4199 20.391 24.2178 20.3163 24.006ZM28.3657 37.3413L30.025 36.7109C30.5308 36.5209 30.7985 35.9621 30.6231 35.4629C30.4477 34.9637 29.8956 34.7131 29.3898 34.9032C29.3875 34.904 29.3852 34.9048 29.383 34.9058L27.5576 35.5993L26.7493 33.8568L27.8265 33.4476C28.3316 33.2557 28.5975 32.696 28.4202 32.1974C28.243 31.6987 27.6898 31.4502 27.1845 31.6422L25.9411 32.1146L25.4903 31.1434C24.9777 30.0531 24.9615 28.7828 25.4455 27.6501C26.595 25.147 29.7267 24.6281 31.4958 25.3522C32.5741 25.8912 33.3574 26.8701 33.6499 28.0436L35.0074 33.3756C35.0127 33.3968 35.0197 33.417 35.0265 33.4375C34.7687 33.1301 34.3406 33.0226 33.9558 33.1683L33.0411 33.5159C32.536 33.7077 32.2701 34.2675 32.4474 34.766C32.6246 35.2645 33.1778 35.5131 33.6829 35.3213L34.5976 34.9738C34.8627 34.8731 35.0743 34.6637 35.1772 34.3998C35.1774 35.6695 35.5128 36.9067 36.1494 37.9871L36.6141 38.7753L29.0147 38.7403L28.3657 37.3413ZM73.4545 50.5531L19.2055 50.3032L19.3395 46.4344L73.5885 46.6843L73.4545 50.5531ZM73.2535 56.3562L19.0045 56.1063L19.1385 52.2376L73.3875 52.4875L73.2535 56.3562ZM73.6555 44.7499L19.4065 44.5L19.5405 40.6312L73.7896 40.8811L73.6555 44.7499ZM66.8014 38.9142L65.7742 38.9095C65.8087 37.8932 66.1005 36.8945 66.6222 36.0065C66.9196 36.2114 67.2368 36.3869 67.5693 36.5308C67.1907 37.2838 66.9315 38.0882 66.8014 38.9142ZM73.6225 28.2962C73.3625 28.5987 73.307 29.0228 73.4822 29.3692C74.4324 31.2554 73.6466 33.5993 71.7269 34.6044C71.1518 34.9056 70.5149 35.0618 69.8735 35.0589C69.0117 35.0576 68.1841 34.7666 67.5243 34.2329C67.3917 34.1263 67.2321 34.0579 67.0616 34.0347C66.2006 33.917 65.3912 33.5788 64.7116 33.0526C64.3759 32.7925 63.9015 32.7903 63.5479 33.0472C62.832 33.567 61.9994 33.8976 61.1305 34.0074C60.9585 34.029 60.7942 34.096 60.6543 34.2012C59.9577 34.7287 59.1102 35.012 58.2487 35.0054C56.108 34.9949 54.4332 33.2538 54.5078 31.1166C54.5301 30.4762 54.7114 29.8465 55.0351 29.2842C55.2343 28.9395 55.2082 28.5151 54.9693 28.2102C54.2929 27.3469 54.24 26.1382 54.8368 25.1815L54.8394 25.1774C55.0046 24.9133 55.2136 24.6785 55.4569 24.483C55.7474 24.2495 55.8853 23.8759 55.813 23.5185C55.5214 22.0888 56.4539 20.6592 57.8961 20.3252C58.0422 20.2913 58.1906 20.2697 58.3396 20.2605C58.6633 20.2408 58.9606 20.0613 59.1319 19.7821C60.9692 16.7811 64.8533 15.7623 67.8072 17.5065C68.7523 18.0646 69.5248 18.8671 70.0459 19.8324C70.1979 20.113 70.4826 20.2953 70.8048 20.3179C72.2685 20.4219 73.335 21.693 73.187 23.1574C73.172 23.3059 73.1446 23.4532 73.1049 23.5979C73.0078 23.9546 73.1198 24.3294 73.3942 24.5656C73.9858 25.0733 74.3119 25.8245 74.2837 26.6149C74.265 27.2294 74.031 27.8243 73.6225 28.2962Z" fill="black"/>
<path d="M64.6306 18.5898C62.9886 18.5838 61.4897 19.6099 60.8871 21.1522C60.6914 21.6551 60.9366 22.2089 61.4349 22.3892C61.9332 22.5695 62.4958 22.3081 62.6915 21.8053C63.0838 20.7992 64.2099 20.2767 65.2067 20.6381C65.7513 20.8356 66.1702 21.2706 66.3463 21.8221C66.5071 22.3266 67.0515 22.5931 67.5621 22.4174C68.0727 22.2418 68.3562 21.6904 68.1954 21.1859C67.6998 19.6385 66.2724 18.5989 64.6306 18.5898Z" fill="black"/>
<path d="M59.5525 25.3379C60.0875 25.3403 60.5362 24.9093 60.5547 24.3751C60.5732 23.841 60.1545 23.4059 59.6195 23.4035C58.0144 23.3961 56.6683 24.6891 56.6128 26.2917C56.5573 27.8942 57.8134 29.1992 59.4185 29.2066C59.9535 29.2091 60.4022 28.778 60.4207 28.2439C60.4392 27.7098 60.0205 27.2747 59.4855 27.2723C58.9505 27.2698 58.5318 26.8347 58.5503 26.3006C58.5688 25.7665 59.0175 25.3354 59.5525 25.3379Z" fill="black"/>
<path d="M24.3507 41.6207L22.4133 41.6118C21.8783 41.6093 21.4295 42.0405 21.411 42.5747C21.3925 43.109 21.8112 43.5442 22.3462 43.5467L24.2837 43.5556C24.8187 43.5581 25.2674 43.1269 25.2859 42.5926C25.3044 42.0583 24.8857 41.6232 24.3507 41.6207Z" fill="black"/>
<path d="M68.8454 43.7609L70.7828 43.7698C71.3178 43.7723 71.7666 43.3411 71.7851 42.8068C71.8036 42.2725 71.3848 41.8374 70.8499 41.8349L68.9124 41.826C68.3774 41.8235 67.9287 42.2547 67.9102 42.789C67.8916 43.3232 68.3104 43.7584 68.8454 43.7609Z" fill="black"/>
<path d="M47.6003 41.7278L45.6628 41.7189C45.1278 41.7164 44.6791 42.1476 44.6606 42.6819C44.6421 43.2162 45.0608 43.6513 45.5958 43.6538L47.5333 43.6627C48.0683 43.6652 48.517 43.234 48.5355 42.6997C48.554 42.1655 48.1353 41.7303 47.6003 41.7278Z" fill="black"/>
<path d="M40.5749 36.8587C41.1098 36.8611 41.5586 36.4302 41.5771 35.8959C41.586 35.6394 41.4924 35.3929 41.3171 35.2107C41.0428 34.9264 40.9874 34.4932 41.1797 34.1358L41.5603 33.4264C41.8124 32.9479 41.634 32.3675 41.1618 32.1302C40.6948 31.8954 40.114 32.0837 39.8574 32.5533L39.4762 33.2623C38.8845 34.3626 39.055 35.6964 39.8992 36.5719C40.0744 36.7545 40.3177 36.8578 40.5749 36.8587V36.8587Z" fill="black"/>
</svg>
