<svg width="512" height="512" viewBox="0 0 512 512" fill="none" xmlns="http://www.w3.org/2000/svg">
<path d="M490.768 240.1L466.868 223.332C465.35 168.405 442.462 116.237 403.072 77.9249C363.683 39.613 310.901 18.1802 255.953 18.1854C201.004 18.1906 148.226 39.6334 108.844 77.9528C69.4619 116.272 46.5839 168.444 45.076 223.372L21.232 240.1C20.3119 240.746 19.5608 241.604 19.0421 242.602C18.5234 243.6 18.2525 244.708 18.252 245.832V320.276C18.2536 321.392 18.522 322.491 19.0348 323.482C19.5477 324.473 20.29 325.326 21.2 325.972L47.944 345.084C49.1265 345.933 50.5441 346.393 52 346.4H78.632C80.4882 346.399 82.2681 345.661 83.5806 344.349C84.8931 343.036 85.631 341.256 85.632 339.4V227.5C85.632 227.404 85.664 227.308 85.668 227.208C86.5843 182.647 104.93 140.22 136.768 109.03C168.606 77.8391 211.402 60.3699 255.972 60.3699C300.543 60.3699 343.338 77.8391 375.176 109.03C407.014 140.22 425.36 182.647 426.276 227.208C426.276 227.472 426.336 227.72 426.368 227.972V339.388C426.369 341.244 427.107 343.024 428.419 344.337C429.732 345.649 431.512 346.387 433.368 346.388H439.684V354.452C439.661 365.088 435.84 375.365 428.91 383.433C421.979 391.5 412.395 396.826 401.884 398.452C410.804 378.253 415.405 356.413 415.392 334.332V231.756C415.392 189.475 398.596 148.926 368.699 119.029C338.802 89.132 298.253 72.336 255.972 72.336C213.691 72.336 173.142 89.132 143.245 119.029C113.348 148.926 96.552 189.475 96.552 231.756V334.352C96.5414 369.541 108.178 403.744 129.645 431.626C151.113 459.508 181.206 479.501 215.228 488.486C249.251 497.47 285.291 494.942 317.726 481.295C350.161 467.648 377.167 443.65 394.532 413.044H395.092C410.626 413.027 425.52 406.849 436.504 395.864C447.489 384.88 453.667 369.986 453.684 354.452V346.4H460C461.46 346.4 462.884 345.944 464.072 345.096L490.816 325.984C491.723 325.337 492.462 324.482 492.972 323.491C493.482 322.501 493.748 321.402 493.748 320.288V245.832C493.748 244.708 493.477 243.6 492.958 242.602C492.439 241.604 491.688 240.746 490.768 240.1V240.1ZM255.968 86.336C294.521 86.3836 331.482 101.72 358.743 128.981C386.004 156.242 401.34 193.203 401.388 231.756V269.452C396.535 269.971 391.66 270.246 386.78 270.276C361.508 270.216 336.693 263.537 314.805 250.905C292.917 238.272 274.72 220.127 262.024 198.276C261.409 197.215 260.526 196.334 259.463 195.721C258.4 195.109 257.195 194.787 255.968 194.787C254.741 194.787 253.536 195.109 252.473 195.721C251.41 196.334 250.527 197.215 249.912 198.276C237.216 220.127 219.019 238.272 197.131 250.905C175.243 263.537 150.428 270.216 125.156 270.276C120.276 270.246 115.401 269.971 110.548 269.452V231.756C110.596 193.202 125.932 156.241 153.195 128.98C180.457 101.718 217.418 86.3826 255.972 86.336H255.968ZM255.968 479.772C217.416 479.723 180.456 464.387 153.196 437.125C125.935 409.864 110.6 372.904 110.552 334.352V283.524C115.408 283.968 120.284 284.276 125.16 284.276C150.955 284.214 176.346 277.867 199.137 265.785C221.928 253.704 241.431 236.25 255.96 214.936C270.493 236.256 290.002 253.713 312.801 265.795C335.599 277.877 360.998 284.22 386.8 284.276C391.676 284.276 396.552 283.968 401.408 283.524V334.352C401.421 356.808 396.2 378.958 386.16 399.044H320.5C319.015 394.456 316.116 390.456 312.217 387.617C308.319 384.778 303.622 383.246 298.8 383.24H271.072C265.025 383.24 259.226 385.642 254.95 389.918C250.674 394.194 248.272 399.993 248.272 406.04C248.272 412.087 250.674 417.886 254.95 422.162C259.226 426.438 265.025 428.84 271.072 428.84H298.8C303.622 428.833 308.318 427.299 312.215 424.46C316.113 421.62 319.011 417.62 320.496 413.032H378.164C365.006 433.491 346.925 450.321 325.577 461.981C304.229 473.641 280.297 479.758 255.972 479.772H255.968ZM307.568 406.472C307.46 408.726 306.491 410.853 304.86 412.412C303.229 413.972 301.061 414.845 298.804 414.852H271.072C268.738 414.852 266.5 413.925 264.849 412.275C263.199 410.624 262.272 408.386 262.272 406.052C262.272 403.718 263.199 401.48 264.849 399.829C266.5 398.179 268.738 397.252 271.072 397.252H298.8C301.057 397.259 303.225 398.132 304.856 399.692C306.487 401.251 307.456 403.378 307.564 405.632C307.564 405.776 307.52 405.912 307.52 406.056C307.52 406.2 307.556 406.328 307.568 406.472V406.472ZM71.632 332.4H54.244L32.244 316.688V249.488L54.2 234.084H71.624L71.632 332.4ZM255.972 46.4C209.004 46.6515 163.882 64.7206 129.722 96.9568C95.5619 129.193 74.9106 173.193 71.94 220.068H59.14C61.5009 169.454 83.2689 121.695 119.922 86.7115C156.576 51.7279 205.297 32.2088 255.966 32.2088C306.635 32.2088 355.356 51.7279 392.01 86.7115C428.663 121.695 450.431 169.454 452.792 220.068H440C437.036 173.188 416.389 129.182 382.229 96.9389C348.069 64.6964 302.944 46.622 255.972 46.368V46.4ZM479.748 316.708L457.748 332.42H440.36V234.068H457.784L479.74 249.472L479.748 316.708Z" fill="#008080"/>
</svg>
