<svg width="520" height="519" viewBox="0 0 520 519" fill="none" xmlns="http://www.w3.org/2000/svg">
<g filter="url(#filter0_d)">
<path d="M208.5 458.605V510.461L195.961 500.332C194.023 498.766 147.926 461.34 101.18 407.672C36.6953 333.637 4 267.18 4 210.152V204.5C4 91.7383 95.7383 0 208.5 0C321.262 0 413 91.7383 413 204.5V210.152C413 214.941 412.746 219.805 412.285 224.727L372.293 188.242C364.102 105.086 293.773 39.9023 208.5 39.9023C117.742 39.9023 43.9023 113.742 43.9023 204.5V210.152C43.9023 306.52 168.066 423.18 208.5 458.605V458.605ZM331.199 429.945H391.051V370.094H331.199V429.945ZM208.5 119.707C255.254 119.707 293.293 157.746 293.293 204.5C293.293 251.254 255.254 289.293 208.5 289.293C161.746 289.293 123.707 251.254 123.707 204.5C123.707 157.746 161.746 119.707 208.5 119.707ZM208.5 159.609C183.746 159.609 163.609 179.746 163.609 204.5C163.609 229.25 183.746 249.391 208.5 249.391C233.25 249.391 253.391 229.25 253.391 204.5C253.391 179.746 233.25 159.609 208.5 159.609ZM489.109 402.832L477.891 392.598V456.656C477.891 486.484 453.621 510.75 423.793 510.75H297.461C267.633 510.75 243.363 486.484 243.363 456.656V392.598L232.145 402.832L205.254 373.355L360.625 231.609L516 373.355L489.109 402.832ZM437.988 356.195L360.625 285.621L283.266 356.195V456.652C283.266 464.48 289.633 470.848 297.461 470.848H423.793C431.621 470.848 437.988 464.48 437.988 456.652V356.195Z" fill="#008080"/>
</g>
<defs>
<filter id="filter0_d" x="0" y="0" width="520" height="518.75" filterUnits="userSpaceOnUse" color-interpolation-filters="sRGB">
<feFlood flood-opacity="0" result="BackgroundImageFix"/>
<feColorMatrix in="SourceAlpha" type="matrix" values="0 0 0 0 0 0 0 0 0 0 0 0 0 0 0 0 0 0 127 0"/>
<feOffset dy="4"/>
<feGaussianBlur stdDeviation="2"/>
<feColorMatrix type="matrix" values="0 0 0 0 0 0 0 0 0 0 0 0 0 0 0 0 0 0 0.25 0"/>
<feBlend mode="normal" in2="BackgroundImageFix" result="effect1_dropShadow"/>
<feBlend mode="normal" in="SourceGraphic" in2="effect1_dropShadow" result="shape"/>
</filter>
</defs>
</svg>
